<?xml version="1.0" encoding="UTF-8" standalone="no"?>
<!DOCTYPE svg PUBLIC "-//W3C//DTD SVG 1.1//EN" "http://www.w3.org/Graphics/SVG/1.1/DTD/svg11.dtd">
<svg width="100%" height="100%" viewBox="0 0 355 90" version="1.1" xmlns="http://www.w3.org/2000/svg" xmlns:xlink="http://www.w3.org/1999/xlink" xml:space="preserve" xmlns:serif="http://www.serif.com/" style="fill-rule:evenodd;clip-rule:evenodd;stroke-linejoin:round;stroke-miterlimit:2;">
    <g id="Artboard1" transform="matrix(0.277308,0,0,0.1125,0,0)">
        <rect x="0" y="0" width="1280" height="800" style="fill:none;"/>
        <g>
            <g transform="matrix(3.96808,0,0,9.78117,-1149.93,-931.159)">
                <path d="M321.179,164.378C321.353,164.32 321.528,164.378 321.644,164.32C321.935,164.32 322.226,164.32 322.516,164.262C322.807,164.145 323.098,164.087 323.389,163.971C323.622,163.913 323.796,163.854 323.971,163.854L324.087,163.854C324.145,163.854 324.261,163.796 324.378,163.738C324.378,163.68 324.436,163.68 324.436,163.68C324.668,163.564 324.901,163.564 325.134,163.447C325.541,163.273 325.89,163.04 326.297,162.807C326.413,162.807 326.879,162.633 326.995,162.575C327.169,162.517 327.286,162.4 327.46,162.342C327.751,162.168 328.042,161.993 328.333,161.819C328.565,161.528 328.914,161.353 329.147,161.121C329.321,161.004 329.38,160.772 329.496,160.655C329.67,160.481 329.845,160.307 330.019,160.074C330.31,159.783 330.426,159.318 330.601,158.911C330.775,158.562 330.95,158.213 331.066,157.806C331.183,157.515 331.241,157.224 331.299,156.933C331.415,156.526 331.415,156.061 331.415,155.595C331.473,155.246 331.473,154.839 331.473,154.49C331.473,154.316 331.415,154.141 331.357,153.967C331.299,153.676 331.183,153.385 331.066,153.153C331.008,153.094 331.008,153.036 330.95,153.036C330.775,152.629 330.601,152.28 330.31,151.931C330.078,151.64 329.845,151.466 329.554,151.291C329.38,151.175 329.205,151.001 329.031,150.884C328.914,150.768 328.74,150.71 328.623,150.594C327.926,150.245 327.286,149.837 326.588,149.547C326.471,149.488 326.355,149.488 326.239,149.43C326.064,149.314 325.89,149.198 325.657,149.139C325.541,149.081 325.366,149.081 325.25,149.023C325.017,148.965 324.843,148.849 324.61,148.849C324.494,148.849 324.378,148.791 324.261,148.791C323.854,148.674 323.447,148.616 323.04,148.558C322.807,148.558 322.575,148.558 322.284,148.5C322.051,148.5 321.877,148.442 321.644,148.383C321.062,148.383 320.481,148.209 319.957,148.151C319.667,148.151 319.376,148.093 319.085,148.093C318.91,148.034 318.736,148.034 318.562,148.034C318.038,147.976 317.573,147.86 317.049,147.86L316.526,147.86C316.351,147.86 316.119,147.802 315.886,147.802L312.28,147.802C312.106,147.802 311.989,147.802 311.873,147.744C311.524,147.685 311.117,147.685 310.71,147.569C310.244,147.453 309.721,147.395 309.256,147.278C309.023,147.162 308.79,147.162 308.616,147.104C308.383,147.046 308.209,147.046 308.034,146.929C307.918,146.871 307.743,146.871 307.569,146.871C307.511,146.813 307.394,146.813 307.278,146.755C307.22,146.697 307.104,146.464 307.046,146.406L307.046,146.173C307.046,145.941 307.104,145.65 307.22,145.475C307.278,145.301 307.627,145.01 307.802,145.01C307.918,144.952 308.5,145.01 308.616,145.01C308.674,144.952 308.674,144.952 308.732,144.952L308.965,144.952C309.605,145.01 310.186,145.126 310.768,145.243C311.349,145.359 311.989,145.359 312.513,145.475C312.745,145.475 312.978,145.533 313.211,145.533C313.676,145.592 314.141,145.65 314.607,145.592C315.304,145.533 316.061,145.417 316.817,145.359L316.875,145.359C317.747,145.184 318.678,145.068 319.55,144.777C319.783,144.777 319.957,144.661 320.132,144.603C320.423,144.545 320.713,144.487 321.004,144.428C321.237,144.37 321.47,144.254 321.702,144.196C321.935,144.138 322.168,144.021 322.458,143.905C322.633,143.847 322.865,143.789 323.098,143.672C323.156,143.614 323.273,143.556 323.389,143.498C323.68,143.381 323.971,143.265 324.203,143.091C324.494,142.858 324.785,142.625 325.076,142.393C325.308,142.16 325.483,141.927 325.715,141.753C325.832,141.637 326.006,141.52 326.064,141.404C326.297,141.171 326.413,140.939 326.646,140.706C326.937,140.299 327.228,139.892 327.402,139.485C327.577,139.136 327.693,138.787 327.867,138.38C327.867,138.321 327.926,138.263 327.926,138.205L327.926,138.147C327.984,138.031 328.042,137.914 328.1,137.74C328.216,137.391 328.216,136.984 328.274,136.577C328.274,136.169 328.333,135.704 328.274,135.297C328.216,134.89 328.1,134.425 327.984,134.076C327.984,133.901 327.926,133.727 327.867,133.552C327.867,133.436 327.693,132.971 327.635,132.912C327.577,132.796 327.518,132.68 327.46,132.563C327.286,132.098 326.995,131.633 326.82,131.109C326.646,130.877 326.471,130.644 326.297,130.411C326.181,130.295 326.006,130.237 325.89,130.179C325.657,130.004 325.425,129.83 325.192,129.655C324.785,129.365 324.436,128.957 323.971,128.667C323.796,128.55 323.622,128.492 323.389,128.376C323.214,128.259 323.04,128.085 322.807,128.027C322.168,127.736 321.702,127.271 321.121,126.98C320.888,126.922 320.713,126.805 320.539,126.747C320.423,126.689 319.957,126.515 319.841,126.515L319.492,126.515C319.492,126.515 319.492,126.456 319.55,126.456C319.55,126.34 319.55,126.282 319.608,126.166C319.841,125.817 321.121,125.061 321.47,124.886C321.528,124.886 321.644,124.828 321.702,124.828C322.109,124.828 322.516,124.828 322.924,124.944C323.156,125.002 323.389,125.177 323.622,125.235C323.738,125.351 323.854,125.351 323.971,125.41C324.203,125.468 324.378,125.584 324.61,125.584L326.123,125.584C326.413,125.584 327.053,125.351 327.228,125.177C327.402,124.944 327.984,123.955 328.042,123.665C328.216,122.967 328.042,122.269 327.984,121.571C327.984,121.396 327.693,120.64 327.577,120.466C327.518,120.349 327.46,120.175 327.402,120.001C327.286,119.884 326.937,119.303 326.82,119.244C326.646,119.07 326.471,118.895 326.239,118.837C325.832,118.663 325.366,118.605 324.959,118.546C324.901,118.546 324.436,118.488 324.378,118.488C323.912,118.488 323.447,118.488 322.982,118.546C322.4,118.663 321.819,118.837 321.295,119.07C321.179,119.186 321.062,119.244 320.888,119.303C320.539,119.477 320.19,119.593 319.899,119.826C319.492,120.001 319.201,120.233 318.852,120.466C318.62,120.582 318.387,120.698 318.271,120.873C317.922,121.396 317.689,121.92 317.398,122.443C317.282,122.56 317.166,122.734 317.049,122.85C317.049,122.909 316.991,123.025 316.933,123.083C316.7,123.374 316.526,123.723 316.351,124.072C316.235,124.304 316.177,124.595 316.061,124.828C315.828,125.351 315.537,125.759 315.363,126.282C315.304,126.282 315.246,126.224 315.188,126.224C314.665,126.224 314.199,126.224 313.676,126.282C313.56,126.282 313.443,126.282 313.327,126.34L312.571,126.34C312.396,126.34 312.222,126.398 311.989,126.398C311.466,126.456 310.884,126.456 310.303,126.573C310.07,126.631 309.721,126.631 309.488,126.747C309.197,126.805 308.965,126.864 308.732,126.922C308.209,127.038 307.743,127.154 307.278,127.329C306.697,127.562 306.115,127.794 305.591,128.085C305.301,128.259 304.952,128.434 304.661,128.55C304.545,128.667 304.428,128.725 304.312,128.841C303.788,129.132 303.265,129.365 302.858,129.772C302.8,129.83 302.742,129.888 302.683,129.946C302.567,130.121 302.393,130.295 302.218,130.47C302.218,130.528 302.16,130.586 302.102,130.586C301.927,130.76 301.811,130.993 301.636,131.226C301.578,131.342 301.462,131.458 301.404,131.575C301.113,132.04 300.822,132.505 300.648,132.971C300.59,133.087 300.415,133.668 300.357,133.843C300.357,133.959 300.299,134.134 300.241,134.308C300.124,134.89 300.066,135.53 300.066,136.111C300.124,136.402 300.066,136.693 300.124,136.984C300.124,137.333 300.182,137.623 300.241,137.914C300.299,138.205 300.299,138.496 300.415,138.787L300.473,138.787C300.473,138.903 300.59,139.31 300.59,139.368C300.648,139.543 300.939,140.183 300.997,140.299C301.055,140.357 301.113,140.473 301.171,140.532C301.229,140.648 301.229,140.764 301.288,140.881C301.404,141.055 301.578,141.171 301.695,141.288C301.753,141.404 301.811,141.462 301.869,141.52C301.985,141.637 302.102,141.753 302.218,141.869C302.276,141.927 302.393,141.986 302.451,142.044C302.625,142.218 302.8,142.451 303.032,142.625C303.207,142.8 303.381,142.858 303.498,142.974C303.614,142.974 303.847,143.207 304.079,143.323C303.905,143.381 303.788,143.44 303.73,143.44C303.498,143.556 303.323,143.73 303.091,143.847C302.625,144.138 302.218,144.545 301.811,144.836C301.636,144.952 301.462,145.068 301.288,145.243C301.055,145.475 300.822,145.708 300.59,145.941C300.241,146.231 300.008,146.522 299.717,146.813C299.484,147.046 299.368,147.395 299.194,147.685C299.077,147.918 298.903,148.151 298.845,148.383C298.728,148.791 298.612,149.198 298.612,149.605C298.612,149.837 298.612,150.128 298.728,150.303C298.845,150.594 298.961,150.826 299.019,151.059C299.136,151.35 299.659,151.873 299.892,152.048C300.124,152.164 300.357,152.28 300.59,152.397C300.88,152.513 301.171,152.571 301.52,152.629C301.695,152.687 301.869,152.804 302.102,152.804L302.218,152.804C302.044,152.92 301.869,153.036 301.695,153.094C301.462,153.211 301.288,153.443 301.055,153.618C300.997,153.676 300.764,153.851 300.706,153.909C300.531,154.025 300.357,154.2 300.182,154.432C300.008,154.607 299.833,154.781 299.659,154.956C299.31,155.188 299.077,155.537 298.845,155.886C298.67,156.119 298.496,156.352 298.379,156.642C298.321,156.817 298.321,156.991 298.263,157.166C298.205,157.34 298.147,157.515 298.147,157.689C298.147,158.271 298.147,158.852 298.321,159.376C298.438,159.609 298.496,159.899 298.612,160.132C298.787,160.365 299.019,160.539 299.194,160.772C299.252,160.888 299.31,161.004 299.426,161.063C299.601,161.179 299.833,161.295 300.008,161.412C300.182,161.702 300.88,162.051 301.171,162.168C301.229,162.168 301.288,162.226 301.346,162.284C301.462,162.342 301.578,162.4 301.753,162.458C301.927,162.517 302.102,162.575 302.276,162.633C302.509,162.749 302.8,162.866 303.032,162.924C303.439,163.04 303.788,163.156 304.196,163.215C304.254,163.273 304.37,163.273 304.486,163.331C304.777,163.389 305.068,163.505 305.359,163.564C305.591,163.564 305.824,163.622 306.057,163.68C306.348,163.68 306.638,163.738 306.929,163.796C307.104,163.854 307.336,163.854 307.569,163.854C307.743,163.913 307.918,163.971 308.092,163.971C308.383,163.971 308.616,163.971 308.849,164.029C309.256,164.087 309.663,164.087 310.07,164.145C310.361,164.203 310.593,164.203 310.884,164.203C310.942,164.262 311,164.262 311,164.262L311.815,164.262C312.687,164.262 313.56,164.262 314.432,164.32C314.781,164.32 315.13,164.378 315.421,164.378C316.235,164.378 317.049,164.436 317.805,164.436L320.306,164.436C320.597,164.436 320.888,164.378 321.179,164.378ZM313.676,141.753C313.618,141.753 313.327,141.753 313.269,141.695C313.036,141.637 312.862,141.578 312.687,141.462C312.513,141.404 312.28,141.346 312.047,141.288L311.815,141.288C311.815,141.23 311.757,141.171 311.698,141.171C311.582,141.055 311.466,140.997 311.349,140.881C311,140.59 310.652,140.299 310.303,139.95C310.244,139.834 310.128,139.485 310.07,139.368C310.07,139.31 309.895,139.019 309.895,138.961C309.837,138.845 309.779,138.729 309.721,138.612C309.663,138.438 309.488,138.205 309.488,137.972C309.372,137.623 309.314,137.275 309.314,136.867L309.314,135.239C309.314,135.181 309.314,134.948 309.372,134.89C309.372,134.657 309.372,134.425 309.43,134.192C309.546,133.785 309.605,133.32 309.779,132.854C309.837,132.68 309.895,132.447 310.012,132.214C310.07,132.098 310.128,131.924 310.244,131.807C310.303,131.691 310.652,131.109 310.768,131.051C311.059,130.76 311.349,130.528 311.64,130.237C311.815,130.062 312.047,129.946 312.222,129.83C312.396,129.713 312.571,129.597 312.745,129.539C312.804,129.539 313.036,129.481 313.094,129.481C313.211,129.481 313.618,129.423 313.734,129.481C313.85,129.539 314.025,129.481 314.141,129.423C314.199,129.423 314.199,129.365 314.199,129.365C314.374,129.365 314.49,129.306 314.607,129.365C315.188,129.597 315.712,129.83 316.177,130.121C316.293,130.121 316.642,130.295 316.7,130.353C317.049,130.586 317.398,130.877 317.689,131.284C317.689,131.284 317.805,131.4 317.805,131.458C317.98,131.807 318.096,132.156 318.329,132.505C318.445,132.68 318.62,133.61 318.62,133.843L318.62,136.751C318.62,137.333 318.503,137.972 318.445,138.612C318.445,138.845 318.329,139.078 318.213,139.31C318.213,139.368 318.213,139.426 318.154,139.485L318.154,139.601C317.98,139.834 317.922,140.183 317.805,140.415C317.747,140.532 317.398,140.881 317.282,140.939C316.7,141.288 316.119,141.637 315.421,141.753C315.363,141.753 315.13,141.811 315.072,141.811C314.607,141.811 314.141,141.811 313.676,141.753ZM310.884,160.074C310.535,160.074 310.244,160.016 309.954,159.958C309.721,159.958 309.43,159.899 309.139,159.841C308.674,159.725 308.209,159.725 307.802,159.492C307.569,159.376 307.278,159.318 307.046,159.201C306.929,159.201 306.871,159.143 306.755,159.085C306.697,159.027 306.697,158.969 306.638,158.911C306.58,158.852 306.58,158.794 306.522,158.794C306.289,158.562 306.173,157.747 306.173,157.398C306.231,157.108 306.231,156.817 306.289,156.526C306.289,156.293 306.348,156.119 306.406,155.944C306.464,155.654 306.58,155.479 306.697,155.246C306.755,155.188 306.813,155.072 306.813,155.072C306.871,155.014 306.871,155.014 306.871,154.956C306.929,154.897 306.929,154.839 306.987,154.781C307.104,154.665 307.278,154.607 307.394,154.549L307.453,154.549C307.453,154.549 307.569,154.607 307.627,154.607L308.383,154.607C308.616,154.607 308.79,154.665 309.023,154.665C309.779,154.723 310.593,154.723 311.408,154.839C311.989,154.897 312.571,154.956 313.152,155.072C313.269,155.13 313.385,155.13 313.56,155.13C313.676,155.188 313.734,155.188 313.85,155.188C314.141,155.246 314.49,155.246 314.781,155.305C315.712,155.421 316.7,155.421 317.631,155.537C317.864,155.537 318.096,155.595 318.329,155.595C318.794,155.595 319.259,155.712 319.725,155.712C320.248,155.77 320.772,155.944 321.179,156.235C321.295,156.352 321.528,156.41 321.644,156.526C321.702,156.642 321.76,156.759 321.877,156.875C321.993,156.933 322.342,157.282 322.4,157.398C322.458,157.573 322.458,157.806 322.458,158.038C322.458,158.155 322.342,158.445 322.284,158.562C322.051,158.911 321.702,159.201 321.295,159.376C321.004,159.55 320.713,159.667 320.365,159.725C319.841,159.841 319.318,159.899 318.736,160.016C318.503,160.074 318.154,160.074 317.922,160.132C317.515,160.19 317.166,160.19 316.817,160.19C316.584,160.19 316.351,160.248 316.119,160.248L314.083,160.248C313.036,160.307 311.931,160.19 310.884,160.074Z" style="fill:rgb(51,82,70);fill-rule:nonzero;"/>
                <path d="M354.796,153.851L356.89,153.851C358.17,153.851 359.449,153.792 360.671,153.792C360.903,153.792 361.136,153.792 361.368,153.734C361.834,153.618 362.357,153.618 362.823,153.327C363.055,153.153 363.346,153.036 363.637,152.92C363.753,152.862 363.869,152.746 363.986,152.687C364.102,152.571 364.277,152.455 364.393,152.338C364.509,152.164 364.684,152.048 364.742,151.815C364.858,151.699 364.8,151.175 364.742,151.001C364.742,150.884 364.451,150.361 364.335,150.245C364.277,150.07 364.16,149.896 364.044,149.779C363.695,149.488 363.288,149.314 362.997,149.023C362.881,148.849 362.706,148.674 362.532,148.558C362.415,148.442 362.241,148.325 362.183,148.151C362.125,148.034 362.008,147.976 361.95,147.86C361.892,147.744 361.834,147.685 361.776,147.569C361.659,147.395 361.601,147.22 361.485,147.046C361.485,146.988 361.427,146.988 361.368,146.929C361.368,146.871 361.31,146.813 361.31,146.813L361.31,146.755C361.31,146.58 361.194,146.464 361.078,146.29C360.961,146.115 360.961,145.882 360.845,145.708C360.671,145.359 360.671,144.894 360.554,144.487C360.496,144.428 360.496,144.312 360.438,144.196C360.438,144.079 360.438,143.905 360.38,143.789C360.38,143.789 360.38,143.73 360.322,143.73C360.322,143.498 360.263,143.323 360.147,143.149C360.147,143.091 360.089,142.974 360.089,142.916L360.089,142.858C360.089,142.8 360.031,142.8 360.031,142.742C359.973,142.567 359.914,142.451 359.856,142.276L359.856,142.102C359.798,142.044 359.798,141.986 359.798,141.986C359.74,141.695 359.74,141.404 359.624,141.171C359.391,140.706 359.391,140.124 359.216,139.659C358.984,138.903 358.809,138.147 358.635,137.391C358.519,137.042 358.402,136.693 358.344,136.286C358.344,136.111 358.286,135.937 358.228,135.762C358.111,135.239 357.995,134.715 357.821,134.192C357.588,133.552 357.413,132.971 357.239,132.331C357.239,132.098 357.239,131.924 357.181,131.749C357.065,131.458 357.006,131.109 356.832,130.877C356.832,130.877 356.832,130.819 356.774,130.819C356.774,130.702 356.657,130.644 356.657,130.528C356.541,130.353 356.541,130.179 356.425,130.062C356.308,129.888 356.192,129.772 356.134,129.597C356.076,129.481 356.018,129.365 355.901,129.248C355.727,128.957 355.494,128.667 355.32,128.434C355.261,128.318 355.203,128.201 355.145,128.143C355.029,128.027 354.913,127.91 354.796,127.794C354.564,127.503 354.331,127.154 354.04,126.922C353.866,126.805 353.749,126.631 353.575,126.456C353.458,126.34 352.702,125.817 352.528,125.7C352.295,125.642 352.121,125.468 351.946,125.41C351.772,125.351 351.655,125.293 351.481,125.235C351.365,125.177 351.307,125.177 351.19,125.177L351.132,125.119C350.958,125.061 350.26,125.002 350.085,125.002C349.562,125.002 349.038,124.944 348.515,125.061C348.282,125.119 347.991,125.119 347.759,125.235C347.584,125.293 347.41,125.293 347.293,125.41C347.235,125.41 347.119,125.468 347.061,125.468C346.77,125.584 346.421,125.759 346.188,125.991C346.014,126.107 345.897,126.282 345.781,126.398C345.49,126.573 345.258,126.805 345.025,127.038C344.967,127.096 344.909,127.213 344.792,127.271C344.502,127.503 344.211,127.736 343.978,128.027C343.745,128.259 343.513,128.608 343.28,128.841C343.048,129.016 342.815,129.306 342.64,129.539C342.524,129.597 342.291,129.539 342.175,129.481L342.175,127.678C342.117,127.329 342.117,126.922 342.117,126.515L342.117,126.224C342.117,125.991 342.117,125.759 342.001,125.584C341.884,125.351 341.71,125.177 341.535,125.002C341.419,124.886 341.245,124.828 341.012,124.828C340.837,124.828 340.605,124.77 340.43,124.77C339.965,124.77 339.383,124.828 338.976,125.061C338.744,125.177 338.511,125.351 338.278,125.468C337.987,125.584 337.697,125.817 337.406,125.991C337.115,126.166 336.824,126.34 336.475,126.573C336.243,126.747 335.894,126.922 335.603,127.096C335.312,127.271 335.021,127.503 334.672,127.62C334.44,127.736 334.265,127.91 334.033,128.027C333.742,128.201 333.393,128.318 333.102,128.55C332.986,128.608 332.927,128.725 332.811,128.783C332.578,128.899 332.346,128.957 332.171,129.132C331.822,129.365 331.473,129.597 331.124,129.83C330.834,130.004 330.601,130.237 330.31,130.411C330.136,130.528 330.019,130.76 329.903,130.935C329.729,131.226 329.729,131.691 329.903,132.04C329.903,132.098 329.961,132.098 329.961,132.156C329.961,132.214 330.019,132.273 330.078,132.331C330.136,132.389 330.252,132.389 330.31,132.447C330.368,132.563 330.834,132.912 330.95,132.971C331.183,133.087 331.415,133.145 331.648,133.261C331.764,133.378 331.881,133.494 331.997,133.552C332.055,133.668 332.171,133.668 332.288,133.727C332.404,133.785 332.753,133.959 332.811,134.076C332.927,134.192 333.16,134.832 333.218,135.006C333.276,135.239 333.393,135.471 333.509,135.762C333.625,135.879 333.684,136.693 333.684,136.867C333.742,137.158 333.742,137.449 333.8,137.682C333.858,137.856 333.8,138.031 333.8,138.205L333.8,139.659C333.8,139.95 333.742,140.241 333.684,140.59C333.625,140.939 333.625,141.288 333.625,141.637C333.625,141.927 333.684,142.218 333.684,142.509C333.625,142.974 333.625,143.44 333.625,143.905C333.625,144.079 333.684,144.254 333.684,144.428L333.684,144.777C333.684,145.01 333.625,145.243 333.625,145.475C333.625,145.882 333.393,146.231 333.393,146.58C333.393,146.697 333.335,146.813 333.335,146.871C333.276,147.162 333.276,147.395 333.218,147.627C333.218,147.685 333.102,147.744 333.102,147.802C333.044,147.86 332.986,147.976 332.927,148.093C332.695,148.267 332.52,148.442 332.346,148.616C332.113,148.849 331.881,149.081 331.59,149.256C331.473,149.372 331.357,149.372 331.299,149.43C330.95,149.721 330.601,150.07 330.426,150.477C330.368,150.652 330.252,150.826 330.194,151.059C330.136,151.233 330.078,151.408 330.136,151.582L330.136,151.699C330.136,151.757 330.194,151.815 330.194,151.815C330.31,152.106 330.485,152.338 330.659,152.571C330.775,152.804 331.008,153.036 331.241,153.094C331.706,153.269 332.113,153.443 332.578,153.502C332.753,153.502 332.986,153.502 333.16,153.56C333.684,153.618 334.207,153.618 334.73,153.676C335.661,153.734 336.65,153.676 337.58,153.676C337.755,153.734 337.871,153.734 338.046,153.734L339.034,153.734C339.791,153.734 340.605,153.792 341.361,153.734L342.233,153.734C342.757,153.734 343.28,153.56 343.804,153.443C343.978,153.385 344.618,153.036 344.734,152.92C345.025,152.804 345.258,152.513 345.432,152.164C345.49,152.106 345.49,151.931 345.49,151.873C345.549,151.524 345.49,151.117 345.374,150.768C345.316,150.652 345.316,150.477 345.258,150.361C345.083,150.07 344.909,149.837 344.618,149.721C344.502,149.663 344.327,149.547 344.211,149.43C344.153,149.372 344.036,149.314 343.978,149.256C343.687,149.139 343.397,148.965 343.164,148.791L342.989,148.791C342.989,148.732 342.931,148.674 342.873,148.616C342.815,148.558 342.757,148.558 342.699,148.442C342.64,148.383 342.466,148.093 342.408,147.976C342.408,147.918 342.233,147.453 342.233,147.336C342.175,146.755 342.117,146.115 342.117,145.533C342.117,145.243 342.117,144.894 342.059,144.603C342.001,144.196 342.001,143.73 341.942,143.265C341.942,143.033 341.884,142.8 341.884,142.567L341.884,140.532C341.884,139.834 341.942,139.194 341.942,138.554C342.001,137.914 341.942,137.333 342.001,136.693C342.059,136.402 342.059,136.053 342.059,135.704C342.059,135.53 342.117,135.355 342.117,135.239C342.117,135.064 342.233,134.948 342.233,134.832C342.233,134.715 342.233,134.308 342.291,134.192L342.291,134.076C342.35,134.017 342.408,133.959 342.408,133.959C342.524,133.785 342.699,133.61 342.815,133.436C343.164,132.854 343.745,132.505 344.269,132.098C344.327,131.982 344.792,131.865 344.909,131.807C345.083,131.749 345.258,131.633 345.432,131.633C345.49,131.633 345.839,131.517 345.956,131.517C346.014,131.517 346.363,131.691 346.479,131.691C346.595,131.749 346.77,131.749 346.886,131.865C347.119,131.982 347.352,132.156 347.526,132.331C347.7,132.505 347.933,132.622 348.108,132.854C348.34,133.087 348.398,133.378 348.573,133.668C348.689,133.843 348.806,134.017 348.864,134.192C348.98,134.366 349.038,134.483 349.096,134.657C349.271,135.006 349.387,135.413 349.503,135.82C349.62,136.577 349.911,137.333 350.085,138.147C350.143,138.321 350.201,138.438 350.26,138.612C350.318,138.903 350.376,139.194 350.434,139.485C350.55,139.95 350.667,140.473 350.725,140.939C350.841,141.346 350.899,141.811 351.016,142.16C351.132,142.567 351.132,142.916 351.248,143.323C351.307,143.44 351.365,143.614 351.423,143.789C351.423,143.905 351.423,144.079 351.481,144.196C351.481,144.37 351.481,144.545 351.539,144.719C351.597,144.777 351.597,144.836 351.597,144.952C351.597,145.301 351.655,145.65 351.714,145.999C351.772,146.057 351.772,146.173 351.83,146.29C351.83,146.522 351.83,146.813 351.888,147.104L351.888,147.802C351.888,147.802 351.888,147.86 351.83,147.86L351.83,147.976C351.19,148.442 350.55,148.907 349.911,149.314C349.678,149.547 349.445,149.837 349.213,150.128C349.096,150.245 348.922,150.419 348.864,150.652C348.864,150.768 348.747,150.942 348.747,151.059L348.747,151.64C348.747,151.757 348.864,151.989 348.864,152.048C348.922,152.106 349.155,152.455 349.213,152.513C349.271,152.571 349.562,152.862 349.62,152.92C349.794,153.153 350.201,153.385 350.609,153.443L350.609,153.502C350.783,153.56 351.016,153.676 351.19,153.734C351.365,153.734 352.004,153.851 352.121,153.851C352.47,153.851 352.761,153.909 353.051,153.909L354.156,153.909C354.389,153.909 354.564,153.851 354.796,153.851Z" style="fill:rgb(51,82,70);fill-rule:nonzero;"/>
                <path d="M379.457,153.618L381.202,153.618C381.725,153.618 382.19,153.502 382.656,153.443C382.83,153.443 382.946,153.443 383.121,153.385L383.237,153.385C383.47,153.385 383.761,153.327 383.993,153.327C384.575,153.269 385.157,153.211 385.68,152.978C385.913,152.862 386.145,152.746 386.32,152.629C386.611,152.455 386.901,152.455 387.134,152.28C387.425,152.048 387.716,151.873 388.006,151.757C388.646,151.524 389.112,151.059 389.635,150.652C389.751,150.535 389.926,150.477 390.042,150.419C390.566,150.07 390.915,149.547 391.264,149.081C391.438,148.907 391.613,148.791 391.787,148.558C391.961,148.383 392.136,148.209 392.252,148.034C392.485,147.744 392.718,147.395 392.892,146.988C392.95,146.813 393.067,146.697 393.125,146.522C393.241,146.348 393.299,146.173 393.416,145.999C393.706,145.592 393.881,145.126 394.113,144.661C394.172,144.487 394.346,143.847 394.346,143.672L394.346,143.44C394.346,143.323 394.346,143.265 394.404,143.207C394.404,143.033 394.462,142.916 394.462,142.8C394.462,142.276 394.462,141.811 394.521,141.288L394.521,139.543C394.521,139.31 394.462,139.078 394.462,138.787C394.404,138.38 394.346,137.972 394.288,137.507C394.172,137.158 394.172,136.751 393.939,136.402C393.706,135.879 393.59,135.355 393.357,134.89C393.241,134.599 393.125,134.25 393.008,134.017C392.834,133.668 392.659,133.32 392.485,133.029C392.31,132.622 392.02,132.273 391.729,131.865C391.613,131.749 391.496,131.633 391.438,131.517C391.205,131.226 391.089,130.935 390.856,130.702C390.682,130.528 390.507,130.411 390.391,130.237C390.217,130.121 390.1,130.004 389.926,129.888C389.81,129.83 389.402,129.365 389.286,129.248C389.228,129.19 388.995,128.899 388.879,128.841L388.763,128.841C388.646,128.725 388.53,128.667 388.414,128.608C387.948,128.259 387.483,127.969 386.96,127.678C386.901,127.62 386.785,127.562 386.669,127.503C385.971,127.271 385.331,126.747 384.575,126.573C384.284,126.456 383.993,126.224 383.644,126.107C383.528,126.049 383.412,126.049 383.295,125.991C383.063,125.933 382.83,125.817 382.597,125.759C382.307,125.7 382.074,125.642 381.783,125.584C381.609,125.584 381.376,125.526 381.202,125.526C381.027,125.526 380.853,125.526 380.678,125.468C380.387,125.41 380.097,125.293 379.806,125.235C379.457,125.177 379.05,125.119 378.701,125.061C378.584,125.002 378.468,125.002 378.352,125.002L378.235,125.002C378.177,124.944 378.119,124.886 378.061,124.886C377.886,124.828 377.712,124.828 377.596,124.828L376.898,124.828C376.607,124.77 376.258,124.828 375.909,124.828C375.734,124.886 375.502,124.886 375.269,124.944C375.036,124.944 374.804,125.002 374.571,125.061C373.931,125.235 373.233,125.41 372.594,125.642C372.245,125.759 371.896,125.875 371.547,125.991C371.256,126.107 370.965,126.282 370.674,126.456C370.151,126.747 369.627,126.98 369.162,127.329C368.929,127.562 368.581,127.678 368.29,127.852C368.115,127.969 367.883,128.085 367.708,128.259C367.592,128.318 367.417,128.492 367.301,128.608C367.068,128.841 366.778,129.016 366.603,129.248C366.312,129.539 366.021,129.83 365.789,130.121C365.614,130.528 365.382,130.819 365.149,131.168C364.916,131.458 364.626,131.749 364.451,132.04C364.218,132.505 363.986,132.971 363.753,133.436C363.637,133.61 363.579,133.785 363.52,133.959C363.404,134.25 363.171,134.89 363.113,135.064C363.113,135.181 363.055,135.297 363.055,135.355C362.939,135.879 362.823,136.344 362.764,136.867C362.706,137.333 362.59,137.74 362.59,138.205C362.532,138.612 362.532,139.019 362.474,139.368C362.415,139.892 362.415,140.357 362.415,140.881C362.474,141.578 362.532,142.276 362.59,142.916C362.59,143.323 362.648,143.73 362.764,144.138C362.764,144.254 362.939,144.777 362.997,144.836C363.23,145.301 363.404,145.824 363.637,146.29C363.869,146.697 364.102,147.046 364.277,147.395C364.335,147.511 364.858,148.093 364.974,148.209C365.033,148.267 365.091,148.383 365.207,148.5C365.207,148.558 365.265,148.674 365.265,148.674C365.323,148.732 365.44,148.849 365.498,148.849C365.672,149.081 365.847,149.372 366.08,149.547C366.312,149.779 366.603,149.896 366.836,150.07C367.417,150.419 367.883,150.884 368.406,151.233C368.697,151.466 368.988,151.64 369.278,151.815C369.918,152.164 370.616,152.338 371.314,152.629C371.663,152.804 372.07,152.978 372.477,152.978C372.884,153.036 373.292,153.211 373.699,153.269C373.99,153.327 374.339,153.327 374.629,153.385C375.036,153.502 375.444,153.56 375.909,153.56C376.2,153.56 376.432,153.734 376.723,153.734L378.003,153.734C378.468,153.734 378.991,153.618 379.457,153.618ZM380.038,149.314C379.806,149.256 379.631,149.198 379.457,149.139C379.282,149.139 379.166,149.081 379.05,149.023C378.991,149.023 378.817,148.965 378.759,148.965C378.584,148.849 378.41,148.791 378.235,148.732C378.061,148.616 377.828,148.616 377.654,148.558C377.596,148.5 377.188,148.325 377.072,148.267C377.072,148.267 376.956,148.093 376.898,148.093C376.839,148.034 376.723,147.918 376.607,147.86C376.49,147.802 376.374,147.685 376.258,147.627C376.2,147.569 376.142,147.569 376.083,147.511L376.025,147.453C375.676,147.104 375.444,146.697 375.095,146.29C374.862,146.057 374.746,145.766 374.571,145.475C374.513,145.301 374.397,145.184 374.28,145.01C374.106,144.777 373.931,144.487 373.699,144.254C373.641,144.196 373.641,144.138 373.582,144.079C373.35,143.614 373.117,143.207 372.826,142.742C372.71,142.509 372.594,142.218 372.477,141.986C372.303,141.637 372.303,141.288 372.128,140.939L372.128,140.822C372.128,140.764 372.187,140.706 372.128,140.59L372.07,140.532C372.012,140.415 372.012,140.299 371.954,140.183C371.954,140.008 371.896,139.834 371.838,139.659L371.838,139.601C371.838,139.543 371.779,139.368 371.779,139.31L371.779,139.252C371.721,139.078 371.721,138.903 371.663,138.729L371.605,138.729C371.43,138.147 371.314,137.565 371.198,137.042C371.198,136.926 371.081,136.577 371.081,136.518L371.081,135.239C371.081,135.006 371.14,134.832 371.14,134.599C371.14,134.192 371.198,133.785 371.314,133.436C371.372,133.203 371.43,132.971 371.489,132.738C371.489,132.68 371.605,132.214 371.605,132.156C371.721,131.807 371.954,131.517 372.187,131.226C372.419,130.819 372.884,130.528 373.233,130.179C373.292,130.121 373.699,129.83 373.815,129.772C373.931,129.713 374.222,129.597 374.513,129.481C374.629,129.539 374.804,129.481 374.862,129.365C374.92,129.365 374.92,129.306 374.92,129.306C375.036,129.306 375.153,129.248 375.269,129.19C375.734,129.132 376.258,129.132 376.665,129.248C376.956,129.306 377.188,129.423 377.421,129.539C377.654,129.655 377.828,129.713 378.061,129.772C378.235,129.888 378.468,130.062 378.701,130.179C378.875,130.295 379.05,130.47 379.282,130.586C379.689,130.819 380.038,131.168 380.271,131.517C380.445,131.691 380.562,131.865 380.736,132.04C380.911,132.214 381.143,132.389 381.26,132.563C381.551,132.854 381.725,133.203 381.958,133.552C382.19,133.959 382.539,134.308 382.772,134.715C382.946,135.006 383.121,135.297 383.237,135.646C383.295,135.82 383.412,135.995 383.47,136.169C383.528,136.286 383.761,136.693 383.761,136.809L383.761,137.275C383.935,137.623 384.11,137.972 384.226,138.321C384.342,138.554 384.342,138.787 384.4,138.961C384.517,139.31 384.749,139.659 384.808,140.008C384.866,140.532 385.04,141.055 385.098,141.578C385.157,141.927 385.215,142.276 385.215,142.567L385.215,143.963C385.215,144.196 385.157,144.428 385.098,144.661C385.04,144.719 385.04,144.894 385.098,144.952L385.098,145.068C384.924,145.592 384.808,146.115 384.575,146.58C384.575,146.697 384.517,146.755 384.517,146.871C384.4,147.104 384.226,147.336 384.11,147.569C383.935,147.976 383.644,148.267 383.354,148.616C383.121,148.849 382.772,148.965 382.481,149.081C382.248,149.081 382.074,149.081 381.841,149.139C381.609,149.198 381.376,149.256 381.143,149.256L380.62,149.256C380.562,149.256 380.504,149.314 380.445,149.372C380.329,149.314 380.155,149.314 380.038,149.314Z" style="fill:rgb(51,82,70);fill-rule:nonzero;"/>
                <path d="M413.19,153.967C413.539,154.025 413.83,154.025 414.121,153.967C414.819,153.909 415.517,153.792 416.157,153.792L421.74,153.792C422.264,153.792 422.845,153.851 423.427,153.792C423.543,153.792 424.241,153.618 424.416,153.56C424.939,153.385 425.288,153.094 425.579,152.629C425.87,152.222 425.812,150.942 425.753,150.477C425.695,150.186 425.463,150.012 425.288,149.837C425.114,149.721 424.939,149.547 424.765,149.43C424.648,149.372 424.532,149.314 424.416,149.256C424.358,149.198 424.299,149.139 424.183,149.081C424.009,148.965 423.892,148.849 423.718,148.791C423.66,148.732 423.485,148.558 423.427,148.558C423.252,148.442 423.136,148.325 422.962,148.151C422.845,148.034 422.787,147.918 422.671,147.802C422.555,147.744 422.438,147.627 422.322,147.511C422.264,147.395 422.264,147.278 422.206,147.104C422.147,146.755 422.089,146.406 422.089,146.057C422.089,145.824 422.031,145.533 422.031,145.243L422.031,144.487C421.973,143.963 421.973,143.44 422.031,142.916C422.031,142.509 421.973,142.044 422.031,141.637C422.031,141.52 422.089,141.404 422.089,141.288C422.147,140.881 422.089,140.473 422.147,140.066C422.206,139.834 422.264,139.601 422.264,139.368C422.264,138.903 422.264,138.438 422.322,137.972C422.38,137.333 422.38,136.693 422.438,136.053C422.555,135.297 422.729,134.541 422.962,133.843C423.136,133.436 423.485,133.145 423.718,132.738C423.776,132.563 423.892,132.447 424.009,132.331C424.125,132.214 424.474,131.982 424.532,131.924C424.706,131.807 424.939,131.807 425.172,131.691C425.23,131.691 425.404,131.691 425.579,131.749L425.637,131.749C425.695,131.807 425.87,131.807 425.986,131.865L426.102,131.865C426.219,131.865 426.451,131.924 426.51,131.924C426.742,131.982 426.975,132.098 427.207,132.214C427.44,132.389 427.789,132.447 428.022,132.68C428.313,132.912 428.545,133.145 428.72,133.436C428.952,133.785 429.127,134.076 429.301,134.425C429.534,134.832 429.708,135.297 429.883,135.704C429.999,135.995 430.057,136.286 430.116,136.577C430.232,136.809 430.29,137.042 430.348,137.333C430.464,137.856 430.755,138.263 430.93,138.787C430.988,138.961 430.988,139.078 431.046,139.252C431.162,139.892 431.395,140.473 431.57,141.113C431.686,141.462 431.802,141.811 431.86,142.16C431.977,142.393 431.977,142.625 432.035,142.8C432.151,143.265 432.209,143.73 432.268,144.196C432.326,144.428 432.384,144.719 432.442,145.01L432.442,145.417C432.5,145.708 432.558,146.813 432.5,147.104C432.442,147.278 432.442,147.453 432.326,147.627C432.209,147.744 432.093,147.918 431.977,148.034C431.919,148.151 431.802,148.267 431.686,148.383C431.453,148.558 431.221,148.849 430.988,149.023C430.697,149.198 430.464,149.43 430.232,149.605C429.999,149.779 429.883,150.012 429.767,150.245C429.708,150.303 429.708,150.419 429.65,150.477C429.534,150.652 429.418,150.826 429.359,151.059C429.359,151.233 429.301,151.64 429.359,151.815L429.359,151.873C429.359,151.931 429.418,152.048 429.418,152.106C429.476,152.222 429.65,152.513 429.767,152.629C429.999,152.92 430.348,153.153 430.755,153.211C431.104,153.327 431.453,153.385 431.802,153.443C431.919,153.443 432.035,153.443 432.151,153.502C432.209,153.502 432.326,153.56 432.326,153.56C432.849,153.618 433.314,153.676 433.78,153.734C433.954,153.734 434.129,153.792 434.303,153.851L434.768,153.851C434.827,153.909 434.943,153.909 435.059,153.967L435.815,153.967C436.281,154.025 436.746,154.025 437.211,154.025C437.677,154.025 438.142,153.909 438.549,153.909L439.363,153.909C439.829,153.909 440.352,153.909 440.875,153.792L441.224,153.792C441.922,153.676 442.62,153.734 443.318,153.618L443.725,153.618C444.074,153.56 444.423,153.56 444.772,153.385C445.063,153.269 445.296,153.094 445.528,152.92C445.761,152.687 445.877,152.338 445.935,151.989C445.994,151.931 445.994,151.524 445.994,151.408C445.935,151.291 445.819,150.942 445.761,150.826C445.761,150.768 445.703,150.768 445.645,150.71L445.645,150.652C445.587,150.477 445.528,150.303 445.354,150.186C445.296,150.128 445.238,150.07 445.179,150.012C445.121,149.954 445.063,149.954 445.005,149.896C444.889,149.837 444.714,149.721 444.598,149.663C444.54,149.605 444.307,149.372 444.249,149.314C444.191,149.256 443.842,149.081 443.784,149.023C443.609,148.965 443.435,148.849 443.318,148.674C443.202,148.616 443.144,148.5 443.027,148.442L442.911,148.383C442.911,148.325 442.795,148.209 442.795,148.151C442.737,148.093 442.62,147.976 442.504,147.918C442.504,147.86 442.388,147.627 442.388,147.569C442.271,147.336 442.155,147.162 442.039,146.929C441.922,146.697 441.864,146.348 441.748,146.057C441.632,145.941 441.632,145.824 441.573,145.65C441.457,145.243 441.283,144.777 441.166,144.312C441.108,144.021 441.05,143.672 440.992,143.381C440.875,143.091 440.759,142.8 440.759,142.509C440.701,142.335 440.585,142.16 440.526,141.986C440.468,141.811 440.41,141.695 440.41,141.52C440.352,141.171 440.294,140.822 440.177,140.532C440.119,140.357 440.119,140.183 440.061,140.066C439.945,139.543 439.829,139.078 439.712,138.612C439.654,138.438 439.596,138.205 439.538,137.972C439.48,137.74 439.421,137.507 439.305,137.216C439.247,136.984 439.131,136.751 439.072,136.518C439.014,136.228 438.956,135.995 438.898,135.704C438.84,135.53 438.723,135.297 438.665,135.123C438.607,134.832 438.549,134.599 438.491,134.308C438.433,134.076 438.316,133.843 438.258,133.61C438.142,133.203 437.967,132.854 437.909,132.505C437.909,132.214 437.793,131.982 437.677,131.749C437.386,131.109 437.153,130.411 436.92,129.713C436.804,129.539 436.63,129.365 436.513,129.132C436.397,128.957 436.339,128.783 436.222,128.608C436.106,128.492 435.99,128.318 435.874,128.201C435.815,128.085 435.699,128.027 435.641,127.969C435.234,127.562 434.827,127.096 434.303,126.747C434.012,126.573 433.722,126.398 433.373,126.282C432.849,125.991 432.268,125.7 431.686,125.526C431.57,125.468 431.453,125.41 431.337,125.41C431.046,125.293 430.755,125.351 430.523,125.293C430.29,125.235 430.116,125.235 429.883,125.235C429.767,125.235 429.65,125.177 429.534,125.177L429.418,125.177C428.778,125.119 428.196,125.235 427.615,125.41C427.266,125.468 426.917,125.584 426.626,125.7C426.451,125.759 426.277,125.875 426.102,125.991C425.695,126.166 425.288,126.34 424.881,126.573C424.532,126.747 424.183,126.922 423.892,127.154C423.66,127.387 423.369,127.562 423.136,127.794C422.962,127.91 422.845,128.085 422.671,128.259C422.555,128.434 422.38,128.608 422.147,128.725C421.973,128.899 421.798,129.074 421.682,129.306C421.624,129.365 421.566,129.423 421.508,129.539C421.391,129.423 421.217,129.19 421.217,129.132C421.1,128.899 420.984,128.725 420.868,128.55C420.577,128.085 420.112,127.736 419.705,127.387C419.646,127.271 419.53,127.154 419.472,127.096C419.356,126.98 419.239,126.922 419.123,126.805C419.007,126.689 418.774,126.631 418.6,126.515C418.483,126.398 418.309,126.282 418.134,126.166C417.785,125.991 417.436,125.875 417.087,125.7C416.913,125.642 416.04,125.468 415.866,125.41L415.517,125.41C415.342,125.41 414.993,125.351 414.703,125.351L414.586,125.351C414.354,125.293 414.121,125.351 413.888,125.351C413.481,125.351 413.074,125.351 412.725,125.468C412.493,125.526 412.26,125.526 412.027,125.584C411.736,125.642 411.446,125.7 411.213,125.817C411.039,125.875 410.864,125.991 410.748,126.049C410.573,126.107 410.457,126.107 410.341,126.166C410.166,126.224 409.992,126.34 409.817,126.398C409.701,126.456 409.003,126.864 408.887,126.98C408.654,127.154 408.421,127.329 408.189,127.445C407.898,127.62 407.549,127.794 407.258,128.027C407.025,128.201 406.793,128.376 406.56,128.492C406.386,128.608 406.269,128.841 406.095,129.016C405.92,129.132 405.746,129.248 405.629,129.423L405.629,129.306C405.571,128.899 405.571,128.492 405.513,128.143L405.513,127.794C405.397,127.096 405.397,126.456 405.222,125.817C405.164,125.41 404.932,125.061 404.641,124.828C404.466,124.653 404.117,124.653 403.885,124.712C403.768,124.77 403.652,124.77 403.536,124.886C403.419,124.828 403.303,124.828 403.187,124.944C402.721,125.177 402.256,125.351 401.791,125.642C401.558,125.817 401.267,125.991 401.035,126.166C400.395,126.573 399.697,126.805 399.057,127.154C398.883,127.271 398.708,127.387 398.534,127.503C398.068,127.736 397.661,127.91 397.254,128.143C396.905,128.376 396.614,128.667 396.265,128.899C395.975,129.074 395.684,129.19 395.451,129.306C395.219,129.481 394.986,129.597 394.753,129.713C394.521,129.888 393.823,130.586 393.648,130.819C393.532,130.993 393.532,131.691 393.532,131.865C393.532,131.982 393.59,132.098 393.648,132.214C393.765,132.447 393.939,132.563 394.113,132.738C394.288,132.854 394.404,132.971 394.579,133.087C394.695,133.203 394.87,133.32 395.102,133.378C395.16,133.436 395.684,133.61 395.742,133.668C395.858,133.727 396.091,133.843 396.265,133.959C396.207,134.134 396.324,134.308 396.498,134.366C396.556,134.425 396.556,134.483 396.614,134.541C396.673,134.774 396.789,135.123 396.789,135.239C396.847,135.53 396.905,135.82 396.905,136.111C396.963,136.693 396.963,137.275 396.963,137.856C396.963,138.205 396.905,138.554 396.905,138.903C396.847,139.485 396.905,140.124 396.847,140.706C396.789,141.52 396.789,142.276 396.789,143.091C396.789,143.498 396.731,143.847 396.731,144.254L396.731,145.941C396.731,145.999 396.673,146.057 396.673,146.115C396.673,146.348 396.673,146.58 396.614,146.813C396.614,147.104 396.614,147.453 396.498,147.802C396.44,147.976 396.265,148.093 396.149,148.151C395.916,148.325 394.986,148.907 394.87,149.139C394.637,149.43 394.288,149.721 394.172,150.012C394.113,150.186 393.997,150.303 393.939,150.419C393.823,150.652 393.706,150.942 393.648,151.233C393.648,151.35 393.59,151.931 393.648,152.106C393.648,152.397 393.706,152.687 393.881,152.978C393.939,153.094 394.113,153.153 394.23,153.211C394.521,153.443 394.928,153.734 395.102,153.792C395.277,153.792 395.509,153.851 395.684,153.909L396.324,153.909C397.429,153.967 398.592,153.909 399.697,153.909C400.86,153.909 401.965,153.967 403.129,153.851C403.71,153.851 404.292,153.792 404.873,153.792C405.339,153.734 405.804,153.792 406.327,153.676C406.502,153.618 406.676,153.618 406.909,153.56C407.084,153.502 407.316,153.385 407.491,153.327C407.665,153.269 407.898,153.153 408.072,153.036C408.13,153.036 408.363,152.862 408.421,152.804C408.596,152.571 408.828,152.338 408.887,152.106C408.945,151.815 409.003,151.582 408.945,151.35C408.945,151.059 408.887,150.71 408.712,150.477C408.538,150.245 408.189,150.07 407.898,149.896C407.84,149.837 407.549,149.605 407.432,149.605L407.432,149.547C407.374,149.547 407.258,149.488 407.2,149.43C406.967,149.256 406.618,149.023 406.502,148.907C406.327,148.791 406.095,148.616 405.862,148.442C405.746,148.442 405.688,148.383 405.629,148.325C405.629,148.267 405.571,148.151 405.513,148.151C405.513,148.093 405.513,147.918 405.455,147.86C405.397,147.627 405.397,147.336 405.339,147.046C405.281,146.929 405.222,146.348 405.222,146.231L405.222,144.603C405.222,144.312 405.281,144.079 405.281,143.789C405.281,143.556 405.281,143.323 405.339,143.091L405.339,141.637C405.339,141.404 405.397,141.23 405.397,140.997C405.455,140.822 405.455,140.648 405.455,140.532C405.513,140.183 405.513,139.892 405.513,139.601L405.513,138.729C405.513,138.496 405.571,138.205 405.571,137.914C405.571,137.449 405.629,136.926 405.571,136.402L405.571,135.297C405.571,135.123 405.804,134.599 405.862,134.483C405.92,134.308 405.978,134.192 406.095,134.076C406.327,133.727 406.56,133.32 406.851,132.971C407.084,132.68 407.432,132.447 407.723,132.214C408.072,132.04 408.421,131.924 408.712,131.807C409.177,131.633 409.701,131.575 410.166,131.575C410.457,131.575 410.748,131.517 411.039,131.517C411.097,131.517 411.329,131.517 411.387,131.575C411.678,131.691 411.969,131.807 412.26,131.924C412.376,131.982 412.551,132.098 412.667,132.214C412.725,132.273 412.9,132.563 412.9,132.622C413.19,133.145 413.423,133.668 413.714,134.192C413.83,134.425 413.888,134.715 414.005,134.948C414.121,135.239 414.179,135.588 414.237,135.879C414.354,136.169 414.296,136.518 414.354,136.809C414.412,137.1 414.354,137.391 414.412,137.682C414.528,138.205 414.528,138.729 414.528,139.252C414.528,140.997 414.586,142.8 414.354,144.545C414.354,144.894 414.296,145.243 414.237,145.592C414.179,145.882 414.121,146.115 414.121,146.406C414.063,146.522 414.005,147.046 414.005,147.162C413.888,147.569 413.772,147.918 413.656,148.267C413.539,148.5 413.423,148.732 413.249,148.849C412.958,149.081 412.551,149.256 412.144,149.43C411.736,149.605 411.387,149.896 411.097,150.186C410.922,150.303 410.864,150.594 410.806,150.826C410.748,150.942 410.748,151.059 410.748,151.233C410.69,151.524 410.69,151.873 410.69,152.222C410.69,152.455 410.806,152.629 410.922,152.804C411.097,153.094 411.446,153.327 411.678,153.443C411.736,153.443 411.736,153.443 411.795,153.502C411.969,153.676 412.202,153.851 412.493,153.851C412.609,153.909 412.725,153.909 412.783,153.967C412.958,154.083 413.132,154.083 413.19,153.967Z" style="fill:rgb(51,82,70);fill-rule:nonzero;"/>
                <path d="M460.418,154.083C460.65,154.025 460.941,154.083 461.232,154.025C461.755,153.909 462.337,153.851 462.861,153.792C463.093,153.792 463.268,153.792 463.5,153.734C463.907,153.618 464.373,153.385 464.78,153.211C465.478,152.92 466.234,152.746 466.816,152.338C467.339,151.989 467.921,151.64 468.444,151.35C468.793,151.175 469.142,150.942 469.491,150.768C469.782,150.594 470.014,150.361 470.305,150.128C470.654,149.779 471.119,149.488 471.41,149.081C471.585,148.907 471.701,148.674 471.876,148.5C472.05,148.383 472.166,148.209 472.341,148.034C472.515,147.802 472.69,147.511 472.806,147.22C472.981,146.929 473.097,146.639 473.213,146.29C473.33,145.882 472.981,145.126 472.69,144.836C472.574,144.719 472.457,144.603 472.283,144.545C471.817,144.428 471.352,144.545 470.887,144.661C470.538,144.719 470.131,144.894 469.84,145.068C469.549,145.243 469.258,145.475 469.026,145.708C468.619,146.057 468.211,146.348 467.746,146.639C467.455,146.755 467.281,146.988 466.99,147.162C466.699,147.336 466.408,147.453 466.059,147.569C465.885,147.685 465.652,147.744 465.42,147.802C465.187,147.86 464.954,147.86 464.722,147.976C464.664,148.034 464.256,148.209 464.14,148.209C463.617,148.325 463.035,148.383 462.453,148.383C461.697,148.442 460.941,148.325 460.185,148.267C460.011,148.209 459.894,148.209 459.72,148.151C459.196,147.976 458.673,147.744 458.149,147.511C457.917,147.395 457.8,147.22 457.626,147.104C457.568,146.988 457.451,146.929 457.393,146.871C457.219,146.697 457.044,146.522 456.87,146.348C456.579,145.999 456.346,145.533 456.056,145.184C455.939,145.01 455.823,144.836 455.707,144.661L455.707,144.603C455.59,144.603 455.59,144.428 455.532,144.428C455.474,144.37 455.474,144.312 455.416,144.312C455.358,144.196 455.3,144.079 455.3,143.963C455.183,143.672 455.067,143.498 454.951,143.265C454.834,142.858 454.951,142.509 454.834,142.102C454.892,142.044 455.358,141.927 455.416,141.869C455.532,141.869 455.59,141.811 455.707,141.811C455.823,141.753 455.997,141.753 456.114,141.637C456.288,141.637 456.405,141.52 456.521,141.52C456.579,141.52 456.579,141.52 456.579,141.462C456.87,141.404 457.161,141.288 457.451,141.171C457.975,140.997 458.557,140.881 459.08,140.706C459.545,140.59 459.952,140.415 460.36,140.241C460.825,140.124 461.29,140.066 461.755,139.834C461.988,139.717 462.221,139.601 462.453,139.485C462.686,139.426 462.919,139.31 463.151,139.194C463.209,139.194 463.268,139.194 463.326,139.136C463.675,139.019 464.082,138.903 464.431,138.845C464.896,138.729 465.361,138.496 465.769,138.38C466.176,138.263 466.641,138.147 467.048,138.031C467.397,137.914 467.746,137.798 468.095,137.623C468.27,137.623 468.386,137.507 468.502,137.449C468.851,137.391 469.142,137.216 469.433,137.158C469.724,137.042 470.014,136.926 470.305,136.809C470.596,136.751 470.945,136.751 471.236,136.577C471.352,136.577 471.41,136.518 471.527,136.46C471.701,136.344 471.934,136.228 471.992,136.111C472.05,135.995 472.108,135.82 472.108,135.646C472.108,135.297 472.166,134.948 472.108,134.599C471.992,134.192 471.934,133.727 471.701,133.378C471.527,132.912 471.178,132.447 471.003,131.982C470.945,131.865 470.829,131.691 470.712,131.575C470.48,131.051 470.305,130.47 469.898,130.062C469.724,129.888 469.549,129.655 469.375,129.423C469.142,129.132 468.909,128.841 468.619,128.55C468.502,128.434 468.328,128.318 468.211,128.259C467.688,127.91 467.281,127.445 466.816,127.154C466.641,127.038 466.408,126.98 466.176,126.864C465.71,126.631 465.303,126.224 464.78,126.049C464.489,125.933 464.198,125.817 463.849,125.7C463.675,125.642 463.5,125.584 463.326,125.584C463.209,125.584 463.093,125.584 463.035,125.526C462.861,125.468 462.686,125.351 462.512,125.351C462.395,125.293 462.221,125.293 462.104,125.235C461.814,125.177 461.581,125.119 461.29,125.119C461.232,125.119 460.999,125.002 460.941,124.944C460.592,124.886 460.243,124.886 459.952,124.886C459.545,124.886 459.08,124.886 458.673,124.944C458.498,124.886 458.324,124.886 458.266,124.886C457.975,124.886 457.742,124.828 457.451,124.886C457.219,124.886 456.986,124.886 456.695,124.944C456.056,125.002 455.358,125.061 454.66,125.177C454.427,125.293 454.194,125.293 453.904,125.351C453.38,125.41 452.857,125.642 452.333,125.817C451.635,126.107 450.937,126.456 450.298,126.864C450.123,126.922 450.007,127.038 449.89,127.154C449.716,127.271 449.483,127.387 449.309,127.562C448.727,127.969 448.204,128.492 447.68,129.016C447.448,129.248 447.215,129.481 447.041,129.772C446.517,130.411 445.935,131.051 445.528,131.749C445.412,131.982 445.354,132.214 445.238,132.447C445.121,132.622 445.063,132.854 445.005,133.029C444.772,133.785 444.423,134.425 444.249,135.181C444.249,135.355 444.191,135.53 444.132,135.704C444.074,135.937 444.074,136.228 444.016,136.518C443.9,137.042 443.784,137.565 443.725,138.147C443.725,138.438 443.667,138.787 443.667,139.078L443.667,139.485C443.609,139.543 443.609,139.601 443.551,139.659L443.551,139.834C443.551,139.892 443.609,139.892 443.609,139.892L443.609,141.346C443.667,141.637 443.725,141.986 443.842,142.276C443.842,142.509 443.9,142.684 443.958,142.916C444.016,143.265 444.191,143.672 444.249,144.021C444.365,144.487 444.481,144.952 444.714,145.359C444.83,145.533 444.947,145.766 445.005,145.941C445.121,146.173 445.179,146.406 445.296,146.58C445.354,146.697 445.412,146.813 445.47,146.929C445.645,147.162 445.761,147.511 445.994,147.685C446.11,147.744 446.401,148.209 446.459,148.267C446.517,148.383 446.633,148.5 446.75,148.616C446.75,148.732 446.808,148.791 446.808,148.849L446.866,148.849C446.924,148.965 446.982,149.023 447.041,149.139C447.041,149.198 447.099,149.198 447.157,149.256C447.331,149.43 447.564,149.605 447.738,149.779C448.029,149.954 448.262,150.186 448.553,150.361C448.669,150.419 448.727,150.535 448.844,150.594C449.193,150.768 449.483,150.884 449.774,151.117C449.949,151.233 450.065,151.35 450.239,151.466C450.705,151.64 451.112,151.873 451.577,152.048C451.635,152.048 451.752,152.106 451.81,152.164C451.926,152.222 452.101,152.28 452.217,152.338C452.74,152.571 453.264,152.804 453.845,153.036C454.078,153.094 454.369,153.094 454.602,153.211C454.951,153.385 455.358,153.443 455.765,153.56C456.114,153.676 456.521,153.792 456.928,153.851C457.161,153.851 457.335,153.909 457.568,153.909C457.742,154.025 458.266,154.025 458.44,154.025C459.08,154.141 459.72,154.141 460.418,154.083ZM453.729,138.612C453.729,138.554 453.613,138.496 453.555,138.438C453.496,138.321 453.496,138.147 453.438,138.031C453.322,137.798 453.148,137.623 453.148,137.391C453.089,137.042 452.915,136.693 452.857,136.286C452.857,136.111 452.799,135.879 452.799,135.704C452.624,134.89 452.682,134.076 452.682,133.261C452.682,133.145 452.74,133.029 452.74,132.854C452.799,132.563 452.857,132.214 452.973,131.924C452.973,131.807 453.148,131.517 453.206,131.458C453.438,131.168 453.671,130.877 453.904,130.644C454.136,130.411 454.369,130.179 454.66,130.004C454.834,129.888 454.951,129.655 455.183,129.597C455.416,129.481 455.648,129.365 455.881,129.306C456.114,129.248 456.346,129.248 456.579,129.248C457.103,129.248 457.626,129.19 458.149,129.19C458.382,129.248 458.615,129.306 458.847,129.365C459.08,129.481 459.313,129.597 459.487,129.772C459.662,129.946 459.836,130.004 459.952,130.121C460.185,130.295 460.36,130.411 460.534,130.644C460.709,130.76 460.883,130.935 460.999,131.109C461.174,131.4 461.348,131.633 461.465,131.924C461.523,132.214 461.697,132.505 461.814,132.796C461.93,133.203 462.104,133.552 462.163,133.959C462.163,134.134 462.221,134.25 462.279,134.366L462.279,134.832C462.279,135.064 462.395,135.297 462.337,135.53C462.337,135.646 462.163,135.82 462.104,135.82C461.988,135.995 461.814,136.053 461.697,136.169C461.581,136.169 461.523,136.286 461.465,136.286C461.29,136.402 461.116,136.46 460.941,136.518C460.418,136.693 459.894,136.926 459.371,137.158C459.138,137.216 458.906,137.391 458.673,137.449C458.324,137.507 457.917,137.623 457.568,137.74C456.986,137.914 456.463,138.089 455.881,138.263C455.765,138.321 455.59,138.321 455.416,138.38C454.892,138.554 454.311,138.729 453.729,138.845C453.729,138.787 453.787,138.67 453.729,138.612Z" style="fill:rgb(51,82,70);fill-rule:nonzero;"/>
                <path d="M477.11,154.432C477.168,154.374 477.285,154.316 477.343,154.316C477.459,154.258 477.517,154.258 477.517,154.2L477.575,154.2C477.75,154.083 477.983,154.083 478.215,153.967C478.448,153.851 478.68,153.734 478.971,153.56C479.029,153.443 479.204,153.385 479.262,153.327C479.495,153.153 479.727,152.978 479.96,152.862C480.193,152.746 480.425,152.571 480.716,152.455C480.832,152.397 480.949,152.28 481.065,152.222C481.24,152.048 481.53,151.989 481.763,151.873C481.996,151.699 482.228,151.582 482.461,151.408C482.635,151.233 482.81,151.117 482.984,150.942C483.043,150.942 483.101,150.826 483.217,150.768C483.333,150.826 483.45,150.884 483.566,150.942C483.682,151.059 483.799,151.117 483.915,151.175C484.031,151.233 484.148,151.291 484.264,151.35C484.497,151.466 484.729,151.64 484.962,151.699C485.311,151.873 485.602,152.106 485.893,152.222C486.067,152.28 486.183,152.397 486.3,152.455C486.707,152.629 487.23,152.687 487.637,152.92C487.812,153.036 487.986,153.153 488.219,153.211C488.452,153.269 488.684,153.385 488.917,153.443C489.266,153.56 489.615,153.734 489.964,153.792C490.138,153.851 490.255,153.851 490.371,153.851C490.72,153.909 491.069,153.909 491.418,153.851C491.651,153.851 491.825,153.792 492.058,153.792C492.465,153.734 492.814,153.792 493.221,153.792C493.337,153.734 493.512,153.734 493.686,153.734C493.919,153.734 494.151,153.734 494.384,153.676C494.733,153.618 495.082,153.618 495.373,153.443C495.547,153.385 495.664,153.269 495.838,153.211C496.013,153.153 496.187,152.978 496.42,152.862C496.594,152.746 496.769,152.629 497.001,152.571C497.176,152.455 497.758,151.931 497.874,151.815C497.99,151.699 498.165,151.582 498.281,151.466C498.455,151.35 498.572,151.233 498.746,151.117C498.979,150.942 499.212,150.768 499.386,150.535C499.561,150.303 499.735,150.012 499.968,149.837C500.084,149.721 500.142,149.605 500.258,149.488C500.607,149.139 500.956,148.791 501.247,148.442C501.712,147.976 502.003,147.395 502.294,146.813C502.352,146.697 502.352,146.58 502.41,146.464C502.527,146.348 502.585,146.231 502.643,146.057C502.701,145.941 502.992,145.301 502.992,145.126C503.05,144.952 503.05,144.719 503.108,144.487C503.167,144.254 503.341,144.079 503.399,143.847C503.399,143.207 503.516,142.567 503.574,141.927C503.632,141.578 503.69,141.23 503.69,140.881L503.69,138.903C503.69,138.612 503.574,138.321 503.574,138.031L503.574,137.449C503.574,136.984 503.399,136.518 503.341,136.053C503.341,135.937 503.341,135.879 503.283,135.82C503.225,135.53 503.167,135.297 503.05,135.006C503.05,134.89 502.934,134.774 502.876,134.657C502.643,134.134 502.41,133.668 502.236,133.145C502.178,132.971 502.061,132.854 501.945,132.738C501.829,132.622 501.771,132.505 501.712,132.389C501.596,132.214 501.48,131.982 501.364,131.807C501.305,131.633 501.189,131.458 501.131,131.226C501.015,130.935 500.666,130.819 500.491,130.528C500.2,130.121 499.851,129.655 499.502,129.248C499.386,129.132 499.27,129.016 499.095,128.899C498.804,128.667 498.514,128.434 498.165,128.201C498.048,128.085 497.932,127.969 497.816,127.91C497.467,127.62 497.06,127.387 496.652,127.154C496.303,126.98 496.013,126.747 495.722,126.573C495.547,126.456 495.315,126.34 495.14,126.224C494.733,126.049 494.384,125.817 494.035,125.584C493.919,125.468 493.744,125.351 493.57,125.293L493.395,125.235C493.105,125.119 492.872,125.061 492.581,125.061C492.407,125.002 492.232,124.944 492.058,124.944C491.767,124.886 491.476,124.886 491.185,124.828C491.011,124.828 490.836,124.77 490.662,124.77L489.557,124.77C489.324,124.77 489.091,124.886 488.917,124.886C488.51,124.886 488.161,125.002 487.812,125.002L487.579,125.002C487.521,124.944 487.347,124.944 487.288,125.002C486.998,125.002 486.707,125.002 486.416,125.061C486.009,125.177 485.602,125.351 485.195,125.642C485.078,125.7 484.904,125.817 484.729,125.933C484.555,126.049 484.322,126.166 484.148,126.34C483.799,126.689 483.45,127.038 483.043,127.329C483.043,127.329 482.984,127.387 482.926,127.387L482.868,127.387C482.81,126.805 482.81,126.224 482.752,125.642L482.752,123.781C482.752,123.548 482.752,123.374 482.81,123.199L482.81,121.804C482.81,121.571 482.868,121.338 482.868,121.106L482.868,114.359C482.868,113.894 482.868,113.428 482.926,112.963L482.926,112.614C482.984,112.381 483.101,111.451 482.984,111.218C482.926,111.044 482.752,110.985 482.577,111.044L482.519,111.044C482.403,110.985 482.345,110.985 482.228,110.985C481.996,110.985 481.763,110.985 481.53,111.044C481.298,111.16 481.007,111.218 480.774,111.334C480.6,111.451 480.425,111.509 480.193,111.625C479.844,111.8 479.495,111.974 479.088,112.149C478.971,112.149 478.855,112.265 478.797,112.323C478.506,112.439 478.273,112.556 478.041,112.672C477.517,113.021 476.936,113.254 476.354,113.545C476.18,113.661 475.947,113.777 475.772,113.894C475.423,114.01 475.074,114.126 474.725,114.301C474.493,114.475 474.26,114.65 474.028,114.824C473.795,114.94 473.446,115.057 473.213,115.231C473.097,115.289 472.981,115.406 472.864,115.464C472.748,115.522 472.574,115.58 472.457,115.697C472.225,115.871 471.992,116.046 471.817,116.336C471.701,116.569 471.468,116.802 471.41,117.092C471.41,117.209 471.294,117.5 471.352,117.616C471.468,117.732 471.585,117.849 471.701,117.965C471.817,118.081 471.992,118.081 472.166,118.197C472.341,118.314 472.574,118.372 472.748,118.488C472.806,118.546 472.922,118.605 472.981,118.605C473.271,118.837 473.562,119.012 473.911,119.128C474.028,119.186 474.435,119.361 474.493,119.477C474.551,119.535 474.609,119.593 474.667,119.652L474.725,119.652C474.667,119.71 474.667,119.768 474.667,119.768C474.667,119.826 474.725,119.884 474.725,119.942L474.725,121.164C474.725,121.455 474.784,121.687 474.842,121.978L474.842,122.618C474.842,122.909 474.9,123.258 474.9,123.607C474.9,123.955 474.9,124.304 474.842,124.595C474.784,125.119 474.725,125.584 474.725,126.049C474.725,126.689 474.667,127.387 474.667,128.027L474.667,133.727C474.667,135.413 474.609,137.158 474.667,138.845C474.725,139.368 474.725,139.834 474.725,140.357L474.725,146.057C474.725,146.231 474.784,146.464 474.784,146.639C474.784,147.453 474.842,148.325 474.842,149.139C474.842,149.256 474.784,149.43 474.784,149.547C474.784,149.721 474.842,150.477 474.725,150.652C474.667,150.768 474.667,150.942 474.667,151.117C474.667,151.582 474.667,151.989 474.609,152.455C474.609,152.804 474.551,153.153 474.551,153.502C474.609,153.676 474.842,153.967 475.016,154.025C475.074,154.025 475.133,154.083 475.133,154.083C475.249,154.141 475.423,154.141 475.598,154.2C475.598,154.2 475.656,154.258 475.714,154.258C475.772,154.316 476.063,154.374 476.121,154.374C476.238,154.432 476.412,154.432 476.587,154.432L477.11,154.432ZM488.277,147.685C487.928,147.685 487.637,147.744 487.288,147.627C486.881,147.569 486.474,147.453 486.125,147.336C486.009,147.278 485.602,147.046 485.485,146.988C485.369,146.871 485.253,146.755 485.078,146.639C484.904,146.522 484.846,146.29 484.729,146.115C484.613,145.941 484.438,145.766 484.264,145.592C484.206,145.475 483.799,144.836 483.741,144.719C483.624,144.37 483.508,143.963 483.392,143.614C483.333,143.556 483.275,143.265 483.275,143.207C483.217,143.033 483.159,142.858 483.101,142.742C483.101,142.218 482.984,141.695 482.984,141.171C482.926,140.822 482.984,140.532 482.926,140.183C482.868,139.659 482.81,139.136 482.868,138.612L482.868,136.867C482.868,136.344 482.984,135.82 483.101,135.297C483.159,135.006 483.159,134.774 483.217,134.483C483.392,133.843 483.741,133.203 484.09,132.622C484.555,131.982 485.02,131.342 485.718,130.877C485.834,130.76 485.951,130.586 486.067,130.47C486.3,130.353 486.474,130.179 486.707,130.062C486.881,130.004 487.114,130.004 487.288,129.946C487.696,129.83 488.103,129.713 488.568,129.655C488.568,129.713 488.626,129.713 488.742,129.713C489.615,129.713 490.487,129.655 491.302,129.888C491.476,129.946 491.592,129.946 491.767,130.004C492.348,130.121 492.988,130.528 493.337,131.051C493.512,131.226 493.57,131.4 493.744,131.575C493.861,131.691 493.977,131.865 494.093,131.982C494.21,132.214 494.384,132.447 494.5,132.68C494.559,132.738 494.675,132.796 494.733,132.912C494.849,133.261 495.14,133.494 495.198,133.843C495.257,134.134 495.373,134.425 495.489,134.715C495.489,134.774 495.606,135.239 495.606,135.355C495.606,135.704 495.606,136.053 495.664,136.402C495.838,137.275 495.78,138.147 495.78,139.019C495.78,139.252 495.722,139.426 495.664,139.659C495.606,139.95 495.547,140.183 495.489,140.473C495.315,140.939 495.257,141.404 495.198,141.869C495.198,141.986 495.14,142.044 495.14,142.102C494.908,142.684 494.733,143.265 494.326,143.73C494.151,143.963 493.977,144.254 493.803,144.487C493.744,144.603 493.686,144.719 493.628,144.836C493.337,145.301 493.046,145.766 492.639,146.173C492.465,146.348 492.232,146.522 492.058,146.697C491.767,146.871 491.476,147.046 491.243,147.22C491.185,147.22 491.127,147.278 491.127,147.336C490.778,147.395 490.487,147.511 490.196,147.569C489.848,147.627 489.499,147.685 489.208,147.744C488.859,147.744 488.568,147.744 488.277,147.685Z" style="fill:rgb(51,82,70);fill-rule:nonzero;"/>
                <path d="M506.656,154.141C506.889,154.141 507.063,154.083 507.296,154.083C507.703,154.025 508.11,154.083 508.517,154.083L512.938,154.083C513.519,154.083 514.043,154.025 514.624,154.025C514.973,154.025 515.264,153.909 515.613,153.909C515.846,153.909 516.02,153.851 516.253,153.792C516.369,153.792 516.486,153.734 516.602,153.734C516.718,153.734 516.835,153.676 516.951,153.676C517.242,153.56 517.532,153.502 517.881,153.385C518.172,153.269 518.521,152.687 518.579,152.397L518.579,151.989C518.638,151.757 518.638,151.524 518.638,151.291C518.579,151.117 518.579,150.884 518.521,150.71C518.347,150.419 518.056,150.186 517.765,149.954C517.707,149.896 517.532,149.837 517.474,149.721C517.416,149.663 517.242,149.43 517.183,149.372C517.067,149.256 516.893,149.198 516.718,149.139C516.66,149.081 516.544,149.023 516.486,148.965C516.369,148.907 516.253,148.849 516.137,148.791C516.078,148.791 515.904,148.616 515.846,148.558C515.671,148.383 515.555,148.151 515.322,148.034C515.264,147.976 515.148,147.744 515.148,147.627C515.09,147.336 514.973,147.046 514.915,146.697C514.915,146.58 514.857,146.464 514.857,146.348L514.857,143.033C514.915,142.916 514.857,142.393 514.857,142.276C514.857,142.16 514.915,142.044 514.915,141.927C514.973,141.637 514.973,141.346 514.973,141.055C514.973,140.881 515.032,140.764 515.032,140.648C515.032,140.124 514.973,139.601 515.09,139.078L515.09,138.438C515.148,138.263 515.148,137.972 515.206,137.914C515.264,137.507 515.322,137.042 515.439,136.693C515.613,136.228 515.729,135.704 516.02,135.297C516.078,135.181 516.195,135.064 516.253,134.948C516.311,134.832 516.776,134.541 516.835,134.483C517.067,134.308 517.3,134.25 517.532,134.134C517.591,134.076 517.649,134.017 517.707,133.959C517.823,133.901 517.881,133.901 517.998,133.901C518.23,133.785 518.405,133.668 518.638,133.61L519.626,133.61C519.917,133.61 520.731,133.959 520.964,134.134C521.08,134.25 521.255,134.366 521.429,134.483C521.487,134.541 521.836,134.832 521.895,134.89C522.127,135.297 522.476,135.588 522.825,135.879C523.116,136.111 523.349,136.518 523.698,136.693C523.814,136.693 523.93,136.751 524.047,136.751L524.163,136.751C524.279,136.867 524.396,136.809 524.454,136.809C524.686,136.809 524.919,136.809 525.035,136.635C525.21,136.46 525.384,136.286 525.442,136.053C525.501,135.879 525.617,135.646 525.617,135.471C525.675,135.239 525.791,135.006 525.908,134.774C525.966,134.657 526.024,134.541 526.082,134.366C526.14,134.076 526.257,133.785 526.373,133.494C526.431,133.378 526.489,133.261 526.489,133.145C526.548,133.029 526.548,132.912 526.606,132.854C526.722,132.447 526.896,132.04 527.071,131.575C527.187,131.342 527.245,131.051 527.304,130.76C527.362,130.586 527.362,130.47 527.42,130.295C527.653,129.655 527.827,129.016 528.118,128.376C528.234,128.085 528.351,127.736 528.467,127.387L528.467,126.922C528.409,126.689 528.002,126.166 527.769,126.049C527.653,125.933 527.478,125.817 527.304,125.7C527.013,125.526 526.722,125.351 526.373,125.293C526.024,125.235 525.675,125.235 525.326,125.177C525.21,125.177 525.152,125.119 525.035,125.119C524.745,125.119 524.512,125.177 524.221,125.177C523.93,125.177 523.639,125.235 523.349,125.293C523,125.351 522.593,125.41 522.302,125.584C522.011,125.759 521.72,125.933 521.429,126.049C521.255,126.107 521.08,126.107 520.906,126.224C520.499,126.456 520.092,126.747 519.743,126.98C519.452,127.154 519.219,127.329 518.987,127.503C518.812,127.62 518.696,127.794 518.521,127.969C518.23,128.259 517.823,128.55 517.532,128.841C517.183,129.19 516.893,129.597 516.66,129.946C516.602,130.062 516.486,130.121 516.427,130.237C516.195,130.411 515.962,130.644 515.729,130.877C515.555,130.993 515.439,131.226 515.264,131.4L515.206,131.342L515.032,131.342C515.09,131.342 515.09,131.284 515.09,131.226L515.09,128.259C515.09,128.027 514.973,127.736 514.973,127.503C514.973,127.271 514.915,127.096 514.857,126.922C514.799,126.747 514.799,126.515 514.741,126.34L514.741,125.933C514.683,125.7 514.683,125.468 514.624,125.235C514.566,125.061 514.275,124.944 514.159,124.944C514.043,124.886 513.926,124.944 513.81,124.944C513.694,124.944 513.403,125.002 513.345,125.002C512.821,125.293 512.298,125.468 511.774,125.759C511.658,125.759 511.6,125.817 511.542,125.817C510.786,126.282 510.146,126.805 509.448,127.271C509.332,127.329 509.215,127.387 509.041,127.445C508.808,127.62 508.459,127.794 508.168,127.969C507.936,128.085 507.703,128.318 507.47,128.434C507.122,128.725 506.656,128.957 506.249,129.132C505.784,129.365 505.377,129.539 504.97,129.83C504.737,130.004 504.504,130.179 504.272,130.295C504.155,130.411 503.806,130.993 503.69,131.109C503.457,131.4 503.167,131.749 503.167,132.098C503.167,132.273 503.167,132.447 503.225,132.563C503.341,132.68 503.516,132.854 503.69,132.912C504.155,133.145 504.621,133.32 505.144,133.552C505.319,133.61 505.493,133.727 505.726,133.843C505.784,133.843 505.842,133.843 505.9,133.901C505.958,133.959 506.016,133.959 506.133,133.959C506.191,134.017 506.191,134.017 506.249,134.076C506.307,134.134 506.424,134.25 506.482,134.366C506.598,134.657 506.598,135.82 506.598,136.111C506.598,136.46 506.714,136.809 506.714,137.158L506.714,138.612C506.714,138.787 506.773,138.961 506.773,139.136L506.773,141.346C506.714,142.684 506.714,144.079 506.656,145.475L506.656,145.824C506.598,146.173 506.598,146.58 506.598,146.929C506.598,146.988 506.482,147.22 506.482,147.278C506.365,147.569 506.191,147.86 505.958,148.093C505.726,148.325 505.551,148.558 505.319,148.732C505.144,148.907 504.97,149.081 504.795,149.198C504.621,149.372 504.388,149.488 504.213,149.547C504.039,149.663 503.516,150.012 503.399,150.186C503.167,150.477 502.934,150.768 502.759,151.059C502.701,151.233 502.701,151.466 502.643,151.64C502.585,151.931 502.585,152.222 502.585,152.455C502.585,152.513 502.643,152.746 502.643,152.804C502.759,153.094 503.05,153.269 503.225,153.502C503.399,153.618 503.574,153.792 503.806,153.851C503.864,153.909 503.981,153.909 504.039,153.909C504.097,153.909 504.097,153.909 504.155,153.967C504.155,153.967 504.213,153.967 504.272,154.025L504.388,154.025C504.679,154.083 504.97,154.141 505.319,154.141L506.656,154.141Z" style="fill:rgb(51,82,70);fill-rule:nonzero;"/>
                <path d="M543.822,154.083C544.054,154.025 544.345,154.083 544.636,154.025C545.159,153.909 545.741,153.851 546.264,153.792C546.497,153.792 546.671,153.792 546.904,153.734C547.311,153.618 547.777,153.385 548.184,153.211C548.882,152.92 549.638,152.746 550.219,152.338C550.743,151.989 551.324,151.64 551.848,151.35C552.197,151.175 552.546,150.942 552.895,150.768C553.186,150.594 553.418,150.361 553.709,150.128C554.058,149.779 554.523,149.488 554.814,149.081C554.989,148.907 555.105,148.674 555.279,148.5C555.454,148.383 555.57,148.209 555.745,148.034C555.919,147.802 556.094,147.511 556.21,147.22C556.384,146.929 556.501,146.639 556.617,146.29C556.733,145.882 556.384,145.126 556.094,144.836C555.977,144.719 555.861,144.603 555.686,144.545C555.221,144.428 554.756,144.545 554.291,144.661C553.942,144.719 553.535,144.894 553.244,145.068C552.953,145.243 552.662,145.475 552.429,145.708C552.022,146.057 551.615,146.348 551.15,146.639C550.859,146.755 550.685,146.988 550.394,147.162C550.103,147.336 549.812,147.453 549.463,147.569C549.289,147.685 549.056,147.744 548.823,147.802C548.591,147.86 548.358,147.86 548.125,147.976C548.067,148.034 547.66,148.209 547.544,148.209C547.02,148.325 546.439,148.383 545.857,148.383C545.101,148.442 544.345,148.325 543.589,148.267C543.414,148.209 543.298,148.209 543.124,148.151C542.6,147.976 542.077,147.744 541.553,147.511C541.321,147.395 541.204,147.22 541.03,147.104C540.972,146.988 540.855,146.929 540.797,146.871C540.623,146.697 540.448,146.522 540.274,146.348C539.983,145.999 539.75,145.533 539.459,145.184C539.343,145.01 539.227,144.836 539.11,144.661L539.11,144.603C538.994,144.603 538.994,144.428 538.936,144.428C538.878,144.37 538.878,144.312 538.82,144.312C538.761,144.196 538.703,144.079 538.703,143.963C538.587,143.672 538.471,143.498 538.354,143.265C538.238,142.858 538.354,142.509 538.238,142.102C538.296,142.044 538.761,141.927 538.82,141.869C538.936,141.869 538.994,141.811 539.11,141.811C539.227,141.753 539.401,141.753 539.518,141.637C539.692,141.637 539.808,141.52 539.925,141.52C539.983,141.52 539.983,141.52 539.983,141.462C540.274,141.404 540.564,141.288 540.855,141.171C541.379,140.997 541.96,140.881 542.484,140.706C542.949,140.59 543.356,140.415 543.763,140.241C544.229,140.124 544.694,140.066 545.159,139.834C545.392,139.717 545.625,139.601 545.857,139.485C546.09,139.426 546.322,139.31 546.555,139.194C546.613,139.194 546.671,139.194 546.73,139.136C547.079,139.019 547.486,138.903 547.835,138.845C548.3,138.729 548.765,138.496 549.172,138.38C549.58,138.263 550.045,138.147 550.452,138.031C550.801,137.914 551.15,137.798 551.499,137.623C551.673,137.623 551.79,137.507 551.906,137.449C552.255,137.391 552.546,137.216 552.837,137.158C553.127,137.042 553.418,136.926 553.709,136.809C554,136.751 554.349,136.751 554.64,136.577C554.756,136.577 554.814,136.518 554.93,136.46C555.105,136.344 555.338,136.228 555.396,136.111C555.454,135.995 555.512,135.82 555.512,135.646C555.512,135.297 555.57,134.948 555.512,134.599C555.396,134.192 555.338,133.727 555.105,133.378C554.93,132.912 554.581,132.447 554.407,131.982C554.349,131.865 554.232,131.691 554.116,131.575C553.883,131.051 553.709,130.47 553.302,130.062C553.127,129.888 552.953,129.655 552.778,129.423C552.546,129.132 552.313,128.841 552.022,128.55C551.906,128.434 551.732,128.318 551.615,128.259C551.092,127.91 550.685,127.445 550.219,127.154C550.045,127.038 549.812,126.98 549.58,126.864C549.114,126.631 548.707,126.224 548.184,126.049C547.893,125.933 547.602,125.817 547.253,125.7C547.079,125.642 546.904,125.584 546.73,125.584C546.613,125.584 546.497,125.584 546.439,125.526C546.264,125.468 546.09,125.351 545.915,125.351C545.799,125.293 545.625,125.293 545.508,125.235C545.217,125.177 544.985,125.119 544.694,125.119C544.636,125.119 544.403,125.002 544.345,124.944C543.996,124.886 543.647,124.886 543.356,124.886C542.949,124.886 542.484,124.886 542.077,124.944C541.902,124.886 541.728,124.886 541.67,124.886C541.379,124.886 541.146,124.828 540.855,124.886C540.623,124.886 540.39,124.886 540.099,124.944C539.459,125.002 538.761,125.061 538.064,125.177C537.831,125.293 537.598,125.293 537.307,125.351C536.784,125.41 536.261,125.642 535.737,125.817C535.039,126.107 534.341,126.456 533.701,126.864C533.527,126.922 533.411,127.038 533.294,127.154C533.12,127.271 532.887,127.387 532.713,127.562C532.131,127.969 531.608,128.492 531.084,129.016C530.851,129.248 530.619,129.481 530.444,129.772C529.921,130.411 529.339,131.051 528.932,131.749C528.816,131.982 528.758,132.214 528.641,132.447C528.525,132.622 528.467,132.854 528.409,133.029C528.176,133.785 527.827,134.425 527.653,135.181C527.653,135.355 527.594,135.53 527.536,135.704C527.478,135.937 527.478,136.228 527.42,136.518C527.304,137.042 527.187,137.565 527.129,138.147C527.129,138.438 527.071,138.787 527.071,139.078L527.071,139.485C527.013,139.543 527.013,139.601 526.955,139.659L526.955,139.834C526.955,139.892 527.013,139.892 527.013,139.892L527.013,141.346C527.071,141.637 527.129,141.986 527.245,142.276C527.245,142.509 527.304,142.684 527.362,142.916C527.42,143.265 527.594,143.672 527.653,144.021C527.769,144.487 527.885,144.952 528.118,145.359C528.234,145.533 528.351,145.766 528.409,145.941C528.525,146.173 528.583,146.406 528.699,146.58C528.758,146.697 528.816,146.813 528.874,146.929C529.048,147.162 529.165,147.511 529.397,147.685C529.514,147.744 529.805,148.209 529.863,148.267C529.921,148.383 530.037,148.5 530.154,148.616C530.154,148.732 530.212,148.791 530.212,148.849L530.27,148.849C530.328,148.965 530.386,149.023 530.444,149.139C530.444,149.198 530.503,149.198 530.561,149.256C530.735,149.43 530.968,149.605 531.142,149.779C531.433,149.954 531.666,150.186 531.957,150.361C532.073,150.419 532.131,150.535 532.247,150.594C532.596,150.768 532.887,150.884 533.178,151.117C533.352,151.233 533.469,151.35 533.643,151.466C534.109,151.64 534.516,151.873 534.981,152.048C535.039,152.048 535.155,152.106 535.214,152.164C535.33,152.222 535.504,152.28 535.621,152.338C536.144,152.571 536.668,152.804 537.249,153.036C537.482,153.094 537.773,153.094 538.005,153.211C538.354,153.385 538.761,153.443 539.169,153.56C539.518,153.676 539.925,153.792 540.332,153.851C540.564,153.851 540.739,153.909 540.972,153.909C541.146,154.025 541.67,154.025 541.844,154.025C542.484,154.141 543.124,154.141 543.822,154.083ZM537.133,138.612C537.133,138.554 537.017,138.496 536.958,138.438C536.9,138.321 536.9,138.147 536.842,138.031C536.726,137.798 536.551,137.623 536.551,137.391C536.493,137.042 536.319,136.693 536.261,136.286C536.261,136.111 536.202,135.879 536.202,135.704C536.028,134.89 536.086,134.076 536.086,133.261C536.086,133.145 536.144,133.029 536.144,132.854C536.202,132.563 536.261,132.214 536.377,131.924C536.377,131.807 536.551,131.517 536.609,131.458C536.842,131.168 537.075,130.877 537.307,130.644C537.54,130.411 537.773,130.179 538.064,130.004C538.238,129.888 538.354,129.655 538.587,129.597C538.82,129.481 539.052,129.365 539.285,129.306C539.518,129.248 539.75,129.248 539.983,129.248C540.506,129.248 541.03,129.19 541.553,129.19C541.786,129.248 542.019,129.306 542.251,129.365C542.484,129.481 542.716,129.597 542.891,129.772C543.065,129.946 543.24,130.004 543.356,130.121C543.589,130.295 543.763,130.411 543.938,130.644C544.112,130.76 544.287,130.935 544.403,131.109C544.578,131.4 544.752,131.633 544.868,131.924C544.927,132.214 545.101,132.505 545.217,132.796C545.334,133.203 545.508,133.552 545.566,133.959C545.566,134.134 545.625,134.25 545.683,134.366L545.683,134.832C545.683,135.064 545.799,135.297 545.741,135.53C545.741,135.646 545.566,135.82 545.508,135.82C545.392,135.995 545.217,136.053 545.101,136.169C544.985,136.169 544.927,136.286 544.868,136.286C544.694,136.402 544.519,136.46 544.345,136.518C543.822,136.693 543.298,136.926 542.775,137.158C542.542,137.216 542.309,137.391 542.077,137.449C541.728,137.507 541.321,137.623 540.972,137.74C540.39,137.914 539.867,138.089 539.285,138.263C539.169,138.321 538.994,138.321 538.82,138.38C538.296,138.554 537.715,138.729 537.133,138.845C537.133,138.787 537.191,138.67 537.133,138.612Z" style="fill:rgb(51,82,70);fill-rule:nonzero;"/>
                <path d="M585.582,154.374C585.756,154.374 585.931,154.316 586.047,154.316L586.512,154.316C587.036,154.258 587.501,154.258 587.966,154.2C588.722,154.083 589.478,154.083 590.235,154.025C590.642,153.967 591.049,153.967 591.398,153.967C591.514,153.967 591.689,153.967 591.805,153.909C591.863,153.851 592.038,153.502 592.038,153.385C592.096,153.269 592.154,153.153 592.212,153.036C592.27,152.92 592.27,152.862 592.328,152.804C592.386,152.629 592.445,152.455 592.503,152.28C592.677,151.64 592.968,151.059 593.259,150.477C593.492,150.07 593.608,149.663 593.782,149.256C593.782,149.198 593.899,148.849 593.899,148.791C594.364,147.395 594.829,145.941 595.644,144.719C595.934,144.37 596.051,143.905 596.225,143.498C596.283,143.381 596.341,143.323 596.341,143.207C596.516,142.916 596.632,142.625 596.749,142.335C596.981,141.869 597.272,141.404 597.505,140.997C597.621,140.706 597.796,140.473 597.912,140.183C598.028,140.008 598.028,139.775 598.144,139.601C598.261,139.252 598.377,138.961 598.493,138.67C598.61,138.438 598.726,138.263 598.842,138.031C598.959,137.798 599.075,137.449 599.25,137.158C599.308,136.984 599.482,136.751 599.599,136.577C599.773,136.111 599.947,135.646 600.064,135.181C600.18,134.832 600.355,134.599 600.471,134.25C600.704,133.727 600.82,133.145 601.053,132.622C601.227,132.273 601.46,131.982 601.634,131.633C601.809,131.284 601.983,130.877 602.158,130.528L602.274,130.528C602.39,130.411 602.39,130.295 602.448,130.179C602.623,130.062 602.739,129.946 602.797,129.888C603.263,129.597 603.728,129.306 604.193,128.957C604.542,128.667 604.775,128.201 604.833,127.736C604.833,127.445 604.891,127.154 604.833,126.864C604.833,126.689 604.775,126.515 604.775,126.398C604.717,126.049 604.077,125.468 603.728,125.293C603.437,125.119 603.03,125.061 602.623,125.061C602.565,125.061 602.507,125.002 602.448,125.002C601.809,124.944 601.169,124.944 600.471,124.886L598.784,124.886C597.737,124.828 596.632,124.77 595.585,124.828C595.236,124.828 594.829,124.828 594.48,124.886C594.248,124.886 594.073,125.002 593.841,125.061C593.317,125.235 592.794,125.351 592.328,125.642C592.154,125.759 592.038,125.933 591.979,126.107C591.921,126.166 591.921,126.34 591.921,126.515C591.863,126.515 591.863,126.515 591.863,126.573C591.805,126.689 591.805,127.154 591.863,127.329C591.921,127.445 592.154,127.852 592.27,127.969C592.445,128.085 592.561,128.201 592.735,128.376C592.794,128.434 592.91,128.55 592.968,128.667C593.143,128.783 593.317,128.899 593.433,129.074C593.492,129.132 593.608,129.248 593.724,129.306C593.782,129.423 593.841,129.481 593.899,129.597C594.015,129.713 594.073,129.772 594.189,129.888C594.248,129.946 594.306,130.411 594.364,130.528L594.364,130.935C594.364,131.284 594.189,131.633 594.073,131.982C593.957,132.273 593.841,132.622 593.724,132.912C593.55,133.436 593.317,133.959 593.084,134.483C593.026,134.599 593.026,134.715 592.968,134.774C592.794,135.123 592.619,135.413 592.503,135.762C592.328,136.228 592.154,136.635 592.096,137.1C591.979,137.507 591.863,137.856 591.689,138.205C591.514,138.612 591.281,138.961 591.165,139.31C591.107,139.601 590.991,139.834 590.874,140.124C590.816,140.183 590.758,140.299 590.758,140.357C590.583,140.706 590.409,140.997 590.293,141.288C590.118,141.578 590.118,141.927 589.886,142.218C589.711,142.567 589.537,142.916 589.42,143.265C589.42,143.149 589.362,143.033 589.362,142.916C589.304,142.684 589.129,142.451 589.071,142.218C588.955,141.986 588.955,141.637 588.839,141.346C588.722,141.171 588.664,140.939 588.606,140.764C588.49,140.415 588.431,140.124 588.315,139.834C588.199,139.426 588.083,139.019 587.908,138.612C587.792,138.263 587.617,137.856 587.559,137.507C587.385,136.926 587.152,136.344 587.036,135.704C586.977,135.53 586.919,135.355 586.861,135.181C586.57,134.657 586.338,134.076 586.221,133.494C586.163,133.261 586.047,132.971 585.989,132.68C585.872,132.447 585.872,132.156 585.814,131.865C585.698,131.4 585.64,130.935 585.698,130.47C585.814,130.353 585.931,130.295 586.105,130.237C586.28,130.121 586.454,130.004 586.628,129.888C586.919,129.772 587.268,129.655 587.559,129.481C587.675,129.423 587.792,129.306 587.908,129.19C588.199,129.016 588.548,128.783 588.664,128.492C588.839,128.201 589.013,127.91 589.013,127.562L589.013,127.038C588.955,126.515 588.606,126.049 588.373,125.584C588.315,125.526 588.141,125.351 588.083,125.293C587.617,124.944 587.036,124.828 586.454,124.828C585.931,124.828 585.349,124.828 584.767,124.886C584.186,124.944 583.546,124.886 582.906,124.886C582.732,124.886 582.557,124.944 582.383,124.944L581.219,124.944C580.929,124.886 580.58,124.828 580.289,124.828C579.358,124.828 578.428,124.828 577.497,124.886L577.323,124.886C577.032,124.944 576.741,124.944 576.45,124.944C576.159,124.944 575.927,125.061 575.694,125.061C575.229,125.119 574.764,125.119 574.356,125.177C574.007,125.235 573.717,125.468 573.426,125.584C573.251,125.759 573.019,125.875 572.902,126.107C572.786,126.282 572.786,126.456 572.786,126.573L572.786,127.213C572.786,127.329 572.844,127.503 572.96,127.678C573.019,127.794 573.251,128.143 573.368,128.201C573.6,128.376 573.775,128.667 574.007,128.841C574.356,129.132 574.705,129.423 575.054,129.772C575.171,129.888 575.287,129.946 575.403,130.062C575.578,130.179 575.636,130.353 575.752,130.528C575.81,130.586 575.869,130.702 575.869,130.76L575.869,130.819C575.81,130.877 575.81,131.051 575.81,131.109L575.81,131.342C575.752,131.633 575.694,131.924 575.578,132.214C575.403,132.738 575.229,133.261 574.996,133.727C574.938,133.843 574.88,133.959 574.822,134.076C574.647,134.483 574.473,134.832 574.356,135.239C574.298,135.471 574.182,135.646 574.124,135.879C574.066,136.053 573.949,136.286 573.891,136.518C573.775,136.809 573.775,137.042 573.6,137.333C573.484,137.682 573.368,138.031 573.251,138.38C573.193,138.67 573.019,138.961 572.902,139.194C572.728,139.659 572.553,140.124 572.321,140.59C572.204,140.822 572.03,141.113 571.972,141.404C571.855,141.578 571.855,141.811 571.739,142.044C571.681,142.218 571.448,142.567 571.332,142.916C571.216,142.684 571.157,142.393 571.041,142.16C570.983,142.102 570.983,141.986 570.983,141.927C570.925,141.811 570.867,141.753 570.867,141.637C570.75,141.404 570.634,141.113 570.518,140.881C570.46,140.706 570.46,140.473 570.343,140.299C570.227,140.008 570.052,139.659 569.936,139.368C569.878,139.078 569.762,138.845 569.645,138.554C569.413,138.205 569.296,137.856 569.18,137.449C569.064,137.216 568.889,136.926 568.831,136.635C568.715,136.228 568.54,135.82 568.366,135.413C568.191,134.832 567.959,134.192 567.726,133.668C567.551,133.261 567.435,132.796 567.319,132.389C567.202,132.098 567.261,131.109 567.377,130.819C567.435,130.76 567.493,130.702 567.493,130.644C567.61,130.528 567.726,130.47 567.784,130.353C567.842,130.295 567.842,130.237 567.9,130.237C568.075,130.004 568.249,129.83 568.424,129.597C568.598,129.481 568.715,129.365 568.889,129.248C569.296,128.899 569.703,128.492 569.936,127.969C569.994,127.794 570.111,127.678 570.111,127.503C570.169,127.271 570.169,126.689 570.111,126.456C569.994,126.282 569.994,125.991 569.82,125.817C569.645,125.642 569.413,125.468 569.122,125.41C568.889,125.293 568.715,125.235 568.482,125.177C568.308,125.177 568.191,125.177 568.075,125.119C567.726,125.119 567.435,125.061 567.086,125.061C566.214,125.061 565.283,125.002 564.353,125.002C563.596,125.002 562.782,125.061 561.968,125.002C561.154,124.944 560.339,124.944 559.525,124.886C558.827,124.886 558.187,124.886 557.49,124.944C556.908,124.944 556.326,124.944 555.803,125.061C555.628,125.119 555.512,125.177 555.396,125.235C555.221,125.177 555.047,125.177 554.93,125.293C554.756,125.41 554.581,125.642 554.465,125.875C554.407,126.049 554.407,126.166 554.291,126.34C554.232,126.573 554.116,126.864 554.058,127.096C554,127.445 554,127.736 554,128.085C554.058,128.318 554.232,128.55 554.349,128.783C554.407,128.899 554.581,129.016 554.698,129.132C554.93,129.365 555.163,129.597 555.454,129.772C555.57,129.888 555.745,129.946 555.919,130.062C556.152,130.353 556.384,130.586 556.675,130.877C556.908,131.051 557.082,131.226 557.257,131.458C557.548,131.807 557.664,132.156 557.897,132.505C557.955,132.563 558.071,133.087 558.129,133.145C558.187,133.436 558.304,133.668 558.478,133.901C558.536,134.076 558.595,134.25 558.711,134.483C558.944,134.89 559.234,135.297 559.467,135.762C559.641,136.111 559.758,136.402 559.816,136.751C559.932,137.275 560.107,137.856 560.339,138.321C560.398,138.554 560.514,138.729 560.572,138.961C560.747,139.426 560.921,139.95 561.096,140.473C561.212,140.706 561.328,140.881 561.386,141.113C561.561,141.52 561.735,141.986 561.852,142.393C561.968,142.684 562.026,142.974 562.142,143.265C562.201,143.323 562.259,143.44 562.317,143.498C562.433,143.789 562.55,144.138 562.666,144.428C562.782,144.719 562.957,144.894 563.073,145.126C563.189,145.417 563.306,145.708 563.422,145.999C563.596,146.522 563.829,146.929 564.004,147.453C564.236,148.267 564.585,149.081 565.051,149.837C565.051,149.837 565.167,149.954 565.167,150.012C565.225,150.186 565.225,150.419 565.283,150.594C565.341,150.71 565.458,150.826 565.516,150.942C565.516,151.059 565.807,151.64 565.865,151.757C565.865,151.931 565.981,152.513 566.097,152.687C566.156,152.804 566.156,152.978 566.156,153.094C566.156,153.211 566.156,153.443 566.272,153.56C566.446,153.734 566.737,153.792 567.028,153.851C567.377,153.909 567.784,153.909 568.191,153.967C568.889,154.025 569.587,154.025 570.285,154.025C570.401,153.967 570.518,153.967 570.692,153.967C571.274,153.967 571.855,153.967 572.437,153.909C572.553,153.909 572.844,153.967 573.135,153.909C573.193,154.141 573.484,154.2 573.658,154.025C573.775,153.909 574.007,153.385 574.066,153.211C574.182,152.804 574.415,152.397 574.589,151.931C574.647,151.64 574.705,151.35 574.822,151.059C574.88,150.942 574.996,150.768 575.054,150.652C575.287,150.012 575.578,149.43 575.869,148.849C575.985,148.616 576.043,148.325 576.159,148.034C576.567,147.162 576.857,146.231 577.323,145.359C577.439,145.184 577.555,145.01 577.672,144.777C577.788,144.603 577.904,144.312 577.962,144.079C578.195,143.44 578.428,142.858 578.66,142.218C578.835,141.695 579.126,141.23 579.358,140.764C579.416,140.648 579.533,140.299 579.649,140.008C579.707,140.357 579.765,140.764 579.882,141.113C580.056,141.637 580.289,142.16 580.405,142.684C580.58,143.381 580.754,144.079 581.045,144.777C581.336,145.475 581.568,146.29 581.801,147.046C581.976,147.511 582.15,148.034 582.383,148.558C582.499,148.907 582.673,149.256 582.732,149.605C582.906,150.186 583.255,150.71 583.371,151.291C583.488,151.582 583.546,151.931 583.604,152.222C583.604,152.455 583.837,153.094 583.953,153.269C584.128,153.502 584.244,153.734 584.36,153.967C584.418,154.025 584.651,154.2 584.709,154.258C584.825,154.316 585.058,154.374 585.174,154.374C585.291,154.374 585.465,154.432 585.582,154.374Z" style="fill:rgb(51,82,70);fill-rule:nonzero;"/>
            </g>
            <g transform="matrix(0.284744,0.347582,-0.141009,0.701883,457.177,-451.81)">
                <path d="M728,525C707.359,528.107 644.405,514.367 629,625C612.708,742.004 627.057,705.671 672,703C682.075,702.401 680.705,708.453 676,710C666.777,713.033 602.466,714.255 621,766C639.078,816.473 638.508,760.958 751,758C855.819,755.244 875.286,831.445 882,756C885.764,713.697 855.186,710.905 819,704C811.335,702.537 813.451,696.079 819,696C859.399,695.427 872.29,723.019 872,686C871.751,654.137 863.917,588.701 822,575C809.723,570.987 796.54,568.589 790.709,568.707C781.004,568.904 784.25,561.369 789,561C812.696,559.159 836.267,583.77 833,558C828.178,519.971 803.276,486.114 784.476,463.669C771.066,447.66 759.096,445.433 740,453C728.243,457.659 730.514,446.803 737,446C744.238,445.103 780.68,432.855 763,393C745.32,353.145 716.243,363.169 706,366C695.757,368.831 679.944,382.173 684,397C688.056,411.827 702.794,402.042 709,401C715.206,399.958 717.721,404.081 709,407C700.279,409.919 663.326,427.815 663,487C662.773,528.173 672.074,525.719 684,522C693.421,519.062 716.674,515.682 728,518C734.295,519.288 732.587,524.309 728,525Z" style="fill:rgb(203,71,68);"/>
            </g>
        </g>
    </g>
</svg>
