<?xml version="1.0" encoding="UTF-8" standalone="no"?>
<!DOCTYPE svg PUBLIC "-//W3C//DTD SVG 1.1//EN" "http://www.w3.org/Graphics/SVG/1.1/DTD/svg11.dtd">
<svg width="100%" height="100%" viewBox="0 0 136 246" version="1.1" xmlns="http://www.w3.org/2000/svg" xmlns:xlink="http://www.w3.org/1999/xlink" xml:space="preserve" xmlns:serif="http://www.serif.com/" style="fill-rule:evenodd;clip-rule:evenodd;stroke-linejoin:round;stroke-miterlimit:2;">
    <g id="Artboard1" transform="matrix(0.105957,0,0,0.307297,0,0)">
        <rect x="0" y="0" width="1280" height="800" style="fill:none;"/>
        <g id="Logo" transform="matrix(24.5337,0,0,8.45931,-7183.82,-147.528)">
            <g transform="matrix(0.14433,0,0,0.14433,210.655,-26.3613)">
                <path d="M728,525C707.359,528.107 644.405,514.367 629,625C612.708,742.004 627.057,705.671 672,703C682.075,702.401 680.705,708.453 676,710C666.777,713.033 602.466,714.255 621,766C639.078,816.473 638.508,760.958 751,758C855.819,755.244 875.286,831.445 882,756C885.764,713.697 855.186,710.905 819,704C811.335,702.537 813.451,696.079 819,696C859.399,695.427 872.29,723.019 872,686C871.751,654.137 863.917,588.701 822,575C809.723,570.987 796.54,568.589 790.709,568.707C781.004,568.904 784.25,561.369 789,561C812.696,559.159 836.267,583.77 833,558C828.178,519.971 803.276,486.114 784.476,463.669C771.066,447.66 759.096,445.433 740,453C728.243,457.659 730.514,446.803 737,446C744.238,445.103 780.68,432.855 763,393C745.32,353.145 716.243,363.169 706,366C695.757,368.831 679.944,382.173 684,397C688.056,411.827 702.794,402.042 709,401C715.206,399.958 717.721,404.081 709,407C700.279,409.919 663.326,427.815 663,487C662.773,528.173 672.074,525.719 684,522C693.421,519.062 716.674,515.682 728,518C734.295,519.288 732.587,524.309 728,525Z" style="fill:rgb(203,71,68);"/>
            </g>
            <g transform="matrix(0.14433,0,0,0.14433,210.655,-26.3613)">
                <path d="M649,793C640.235,797.19 640.14,799.657 641,807C641.86,814.343 645.17,835.333 653,844C659.817,851.545 660.831,848.77 660.804,843.402C660.791,840.724 661.252,837.226 662,835C663.332,831.037 665.827,831.74 666,835C666.459,843.647 676.116,863.737 685,869C690.578,872.304 691.425,871.34 692,867C692.575,862.66 694.919,856.739 696,854C697.081,851.261 698.006,850.658 700,855C716.338,890.587 723.07,891.764 735,898C740.353,900.798 741.459,898.875 741,894C740.068,884.104 742.172,864.02 748,864C753.828,863.98 757.436,886.813 757,895C756.814,898.49 758.093,901.151 763,898C773.973,890.953 788.193,870.852 790,859C791.07,851.985 792.178,851.93 794,856C795.855,860.143 797.044,862.726 798,867C798.933,871.171 800.485,871.328 803,869C805.515,866.672 820.31,842.975 820,835C819.69,827.025 821.718,829.862 824,832C827.118,834.92 827.547,839.207 827,843C826.453,846.793 827.234,849.799 832,846C836.766,842.201 855.294,812.771 857,805C858.706,797.229 857.638,796.607 853,793C843.308,785.464 816.595,772.221 773,769C765.423,768.44 763.408,770.981 768,776C772.592,781.019 774.078,783.973 774,790C773.922,796.027 766.045,811.829 751,812C735.955,812.171 731.043,797.581 731,790C730.957,782.419 734.482,776.797 737,775C739.518,773.203 740.014,770.023 735,770C712.01,769.893 677.552,779.349 649,793Z" style="fill:rgb(158,134,115);"/>
            </g>
        </g>
    </g>
</svg>
