<?xml version="1.0" encoding="UTF-8" standalone="no"?>
<!DOCTYPE svg PUBLIC "-//W3C//DTD SVG 1.1//EN" "http://www.w3.org/Graphics/SVG/1.1/DTD/svg11.dtd">
<svg width="100%" height="100%" viewBox="0 0 1920 374" version="1.1" xmlns="http://www.w3.org/2000/svg" xmlns:xlink="http://www.w3.org/1999/xlink" xml:space="preserve" xmlns:serif="http://www.serif.com/" style="fill-rule:evenodd;clip-rule:evenodd;stroke-linejoin:round;stroke-miterlimit:2;">
    <g transform="matrix(1,0,0,1,-1074,0)">
        <g id="Artboard2" transform="matrix(1.875,0,0,0.162187,-939.75,0)">
            <rect x="1074" y="0" width="1024" height="2304" style="fill:none;"/>
            <g transform="matrix(0.90166,0,0,2.60596,138.972,-2003.16)">
                <g transform="matrix(1.0303,0,0,4.12122,1265.77,-1590.89)">
                    <path d="M112,645L127.69,626.416L117.938,629.778L130.981,613.473L124.991,615.236L135,598L146.632,622.875L141.728,621.145L153.263,638.443L146.523,636.792L158,652L149,647L159.287,661.615L150.105,660.984L161,672L151,669L164.712,688.244L155.905,689.337L166,700L158,700L173,723L164,718L174,733L164,730L172,741L150,729L156,741L141,729L136,743L128,728L117,740L118,725L99,737L110,722L91,726L107,709L93,712L110,696L97,698L113,684L98,688L115,672L102,675L118,656L108,658L123,639L112,645Z" style="fill:rgb(58,105,42);"/>
                </g>
                <g transform="matrix(1.0303,0,0,4.12122,1137.06,-1351.88)">
                    <path d="M303,558L292.127,579.479L300.832,575.499L288.858,588.49L296.544,588.591L285.581,600.564L295.657,597.084L285.976,608.965L294.527,606.079L279.969,619.12L289.065,616.756L279.702,627.285L289.88,626.311L275.329,636.45L286.693,634.475L276.008,645.437L287.246,643.493L273.661,655.065L282.602,652.919L269.884,663.632L280.583,662.241L267.975,675.925L281.999,671.17L265.956,684.389L276.03,683.358L265.656,694.884L277.437,689.141L276.068,699.124L290.394,686.527L289.568,700.711L301.429,686.303L307.088,698.407L312.178,685.529L329.698,697.631L323.963,686.716L340.822,696.33L335.072,686.906L349.284,693.437L342.024,682.506L349.4,684.23L337.832,669.13L348.465,674.683L335.284,657.526L345.27,661.756L332.089,647.691L340.906,650.106L326.559,631.546L336.168,635.358L322.715,617.296L332.593,620.094L319.2,605.435L328.217,607.543L317.059,597.316L326.679,598.895L312.913,586.143L321.991,588.136L310.99,573.217L317.797,575.061L303,558Z" style="fill:rgb(58,105,42);"/>
                </g>
                <g transform="matrix(1.0303,0,0,4.12122,1367.47,-1397.2)">
                    <path d="M303,558L293.578,577.064L302.308,572.131L289.312,586.469L296.491,587.124L287.597,598.406L295.64,595.093L285.12,610.727L294.625,606.626L284.065,623.92L293.205,619.189L281.57,635.575L289.19,633.063L277.255,647.492L286.209,643.049L274.736,659.516L283.518,655.228L276.977,665.983L285.643,662.89L274.795,673.414L283.48,671.269L271.132,683.753L279.662,681.555L268.773,694.29L283.108,686.377L278.622,703.87L289.076,688.002L291.001,703.943L297.384,689.158L297.233,704.976L306.034,690.654L309.865,704.265L316.3,689.702L323.145,702.826L326.283,689.666L333.504,703.2L338.072,691.906L347.924,703.415L345,692L354.153,695.248L339.158,678.036L348.434,680.543L336.813,666.428L344.967,666.985L332.431,656.155L341.749,657.925L330.905,644.203L339.715,647.426L327.375,630.267L334.977,630.419L322.368,617.823L333.99,620.819L320.02,608.104L326.88,608.877L316.138,596.366L323.626,595.982L313.194,584.794L320.231,585.445L308.84,571.551L319.447,575.484L303,558Z" style="fill:rgb(58,105,42);"/>
                </g>
                <g transform="matrix(1.0303,0,0,4.12122,1319.5,-1270.89)">
                    <path d="M301.762,556.496L291.401,572.572L297.524,571.905L286.171,582.843L295.994,581.692L285.641,594.035L293.594,589.932L281.822,605.848L291.721,603.935L279.274,618.462L289.521,618.566L275.568,633.001L284.584,632.301L273.006,645.79L283.082,642.149L270.12,658.634L280.519,654.624L268.14,669.067L279.84,665.696L268.525,677.59L279.725,675.885L269.486,688.96L283.741,683.051L281.208,693.951L291.974,684.503L294.585,695.82L302.699,683.087L306.299,694.948L309.883,683.666L318.498,693.79L319.651,681.825L327.793,693.381L329.639,682.668L333.426,691.51L335.568,682.592L345,692L339.468,678.521L349.85,683.25L337.832,669.13L347.35,672.873L334.879,657.784L343.704,660.604L331.823,646.867L340.915,649.544L330.321,638.5L338.34,641.475L324.409,624.314L333.69,625.143L319.369,611.092L329.295,613.133L316.855,601.54L324.305,601.749L312.143,592.533L322.358,593.681L307.783,582.356L321.518,584.944L305.399,570.583L315.524,576.497L301.762,556.496Z" style="fill:rgb(58,105,42);"/>
                </g>
                <g transform="matrix(1.0303,0,0,4.12122,1491.1,-1378.07)">
                    <path d="M304.003,560.14L292.615,581.047L300.405,575.907L286.657,593.845L298.787,589.994L283.271,604.824L295.12,604.281L284.854,615.814L295.82,615.951L286.17,627.948L295.196,625.13L281.75,646.319L292.981,643.816L277.121,660.817L287.743,661.125L273.92,678.866L287.404,673.574L271,691L286.865,683.154L285.89,696.538L298.162,682.53L301.021,696.423L307.46,684.08L314.349,696.003L317.81,683.53L326.819,693.788L326.484,681.399L338.051,696.67L334.189,683.163L345,692L333.081,672.197L340.133,676.473L325.942,658.511L335.323,661.126L321.543,649.564L332.995,651.592L320.861,636.299L329.035,638.61L315.826,622.891L325.509,626.389L316.347,611.921L322.793,613.466L313.288,601.564L321.028,603.193L310.068,588.746L318.388,591.62L307.105,576.791L315.236,578.237L304.003,560.14Z" style="fill:rgb(58,105,42);"/>
                </g>
                <g transform="matrix(1.0303,0,0,4.12122,1410.24,-1379.29)">
                    <path d="M303,558L294.027,574.572L299.604,572.113L291.169,585.266L298.046,583.638L290.021,595.72L298.032,593.795L286.693,606.944L295.695,604.286L284.15,617.284L294.467,617.753L283.068,630.188L292.484,630.245L277.556,645.669L289.593,643.252L274.656,658.311L286.325,656.949L269.119,671.612L282.753,670.318L264.672,681.902L277.057,681.708L268.484,696.265L281.019,691.135L286.199,702.278L294.715,686.394L301.936,701.497L307.514,688.601L315.548,699.801L319.065,684.979L327.978,698.951L328.684,684.268L345.051,695.246L331.783,674.864L343.138,681.109L331.805,665.987L340.906,669.553L327.985,653.503L338.223,657.147L325.074,640.513L336.365,645.06L319.86,624.79L331.307,628.797L317.586,615.859L327.019,618.268L315.645,606.082L323.873,609.309L313.78,597.282L321.783,598.941L310.781,585.078L318.661,586.962L308.22,574.653L315.525,577.801L303,558Z" style="fill:rgb(58,105,42);"/>
                </g>
                <g transform="matrix(1.0303,0,0,4.12122,1230.42,-1345.26)">
                    <path d="M303,558L292.601,576.041L299.604,572.113L290.465,584.881L295.892,583.967L288.475,595.601L294.484,594.421L286.137,606.976L292.971,605.184L283.509,618.859L292.61,615.586L281.534,629.517L290.839,627.499L277.081,643.36L287.699,639.189L274.345,653.111L286.602,650.621L272.679,664.628L283.453,662.681L270.916,676.094L282.272,675.553L266.472,689.564L286.218,681.91L289.663,694.648L297.352,679.637L301.63,694.808L309.671,682.374L314.799,695.908L317.786,679.821L325.74,695.44L326.822,679.384L333.739,695.062L334.521,683.445L345,692L332.659,671.858L340.133,676.473L327.413,660.834L338.563,665.214L324.589,648.828L334.645,652.122L322.099,636.035L330.561,637.376L319.646,626.37L328.188,627.153L317.812,616.049L324.826,616.431L313.526,604.581L323.226,607.187L310.871,594.106L318.383,595.749L308.991,584.426L316.364,584.864L306.999,571.929L315.245,576.292L303,558Z" style="fill:rgb(58,105,42);"/>
                </g>
                <g transform="matrix(1.0303,0,0,4.12122,1292.31,-1425.46)">
                    <path d="M303,558L293.131,573.496L298.094,572.254L290.493,585.227L296.446,583.813L287.189,595.045L294.945,594.176L285.044,605.234L293.893,603.818L281.938,617.08L291.46,615.735L279.652,628.611L289.717,627.401L277.114,641.994L287.667,640.06L275.148,652.793L286.299,650.47L273.573,663.951L283.919,661.329L271.465,673.759L282.596,671.589L271.601,681.136L281.878,680.733L271,691L286.975,684.881L288.067,691.231L295.945,683.222L300.547,695.243L304.3,683.497L309.836,695.385L314.079,683.66L318.501,695.526L322.227,686.322L326.667,692.733L329.357,682.4L335.923,692.444L336.184,683.567L347.455,690.388L339.862,680.29L345.657,682.445L338.319,673.943L344.329,675.05L335.554,663.53L342.048,665.14L332.106,653.36L339.019,655.998L329.393,645.998L336.752,647.493L327.223,635.282L333.079,635.452L323.625,625.683L330.093,627L319.859,616.025L326.681,617.683L317.614,607.584L323.748,609.295L315.45,597.476L321.652,599.926L313.854,588.914L319.504,590.546L310.748,581.066L317.073,582.63L308.691,571.972L315.549,572.629L303,558Z" style="fill:rgb(58,105,42);"/>
                </g>
                <g transform="matrix(1.0303,0,0,4.12122,1528.09,-1392.96)">
                    <path d="M303,558L291.788,575.632L295.891,573.066L289.864,582.846L295.7,579.549L288.552,590.362L293.326,587.457L287.358,598.534L293.708,594.309L286.081,607.804L292.314,605.108L284.51,616.435L290.852,614.262L282.496,626.016L288.805,624.027L279.569,637.053L286.74,635.32L278.605,647.531L286.129,645.159L277.182,658.819L283.507,656.286L274.386,670.299L281.465,668.425L272.585,681.587L280.482,679.294L274.267,690.385L289.056,679.947L288.067,691.231L298.173,680.364L301.088,691.407L310.22,681.301L317.698,691.631L321.259,681.736L329.4,691.789L328.638,682.612L340.812,689.496L335.256,679.905L341.237,681.832L329.43,669.362L337.987,673.319L329.844,663.095L336.387,665.297L327.551,654.908L333.871,655.048L325.596,647.235L330.913,646.445L323.952,636.829L330.462,638.633L321.665,626.705L328.072,627.671L320.243,617.192L327.373,618.89L318.259,608.268L323.013,609.447L315.43,599.798L321.408,599.922L313.866,590.267L319.052,591.29L311.993,580.765L316.957,583.026L308.811,570.612L314.058,573.353L303,558Z" style="fill:rgb(58,105,42);"/>
                </g>
                <g transform="matrix(1.0303,0,0,4.12122,1045.3,-1324.25)">
                    <path d="M303,558L295.455,571.234L300.644,570.296L291.237,582.133L298.416,579.803L291.402,592.892L296.96,589.367L289.98,600.59L295.571,597.233L289.497,607.658L294.803,606.018L288.299,618.816L293.678,615.655L285.318,626.45L291.615,624.253L283.086,636.622L289.645,634.729L280.877,645.074L287.014,643.507L278.601,654.673L285.636,651.755L275.773,664.226L282.799,662.37L273.538,673.327L281.049,672.14L270.489,682.477L279.846,680.087L271,691L283.517,685.577L283.195,697.15L292.418,684.796L294.096,696.915L301.329,685.139L305.203,697.522L310.424,684.813L314.531,695.917L317.574,686.995L323.943,694.953L326.127,683.812L331.588,692.144L332.974,684.546L343.003,689.61L335.285,678.166L342.658,682.25L334.607,670.422L341.221,672.564L331.19,662.252L339.72,664.693L328.706,652.424L338.409,656.142L327.088,643.517L334.638,645.737L325.363,638.164L330.425,636.303L320.941,629.44L326.652,629.098L318.031,619.276L324.315,621.644L315.338,611.924L321.626,612.275L314.461,603.004L320.186,603.284L311.443,594.158L317.663,595.091L310.297,584.81L314.871,584.702L307.913,576.185L313.645,575.753L304.883,566.376L310.795,567.962L303,558Z" style="fill:rgb(58,105,42);"/>
                </g>
                <g transform="matrix(1.0303,0,0,4.12122,1457.32,-1373.53)">
                    <path d="M301.467,556.659L294.083,570.991L298.838,568.089L293.745,578.651L297.883,577.799L289.316,588.184L295.29,586.998L287.054,596.872L292.962,596.084L284.711,606.041L290.157,605.698L281.39,617.196L287.865,615.621L278.698,627.948L285.638,626.759L276.002,638.655L282.597,637.02L274.413,649.463L280.139,647.807L271.059,659.423L277.441,657.584L269.129,668.711L275.709,667.438L264.903,677.044L272.823,675.898L263,684.968L272.452,683.404L268.509,692.437L279.87,685.004L280.392,696.164L288.451,684.908L294.195,696.573L298.405,685.85L302.445,696.979L306.92,685.398L312.333,697.284L314.359,687.59L324.729,697.811L322.694,686.424L334.048,697.559L332.369,687.257L345,692L333.019,680.303L342.049,680.88L331.892,669.896L340.688,671.857L329.559,659.301L337.614,661.291L327.958,649.019L334.958,651.277L325.881,641.03L332.328,641.873L323.808,629.501L329.039,630.383L320.193,620.169L325.854,622.462L316.729,609.575L323.702,612.831L313.78,599.986L319.444,601.712L310.175,590.838L316.867,593.349L308.215,581.525L313.22,582.49L305.537,571.3L310.718,573.032L301.467,556.659Z" style="fill:rgb(58,105,42);"/>
                </g>
                <g transform="matrix(1.0303,0,0,4.12122,1004.84,-1431.9)">
                    <path d="M303.57,556.938L291.032,573.307L300.332,569.566L288.651,582.79L295.98,581.627L288.97,592.208L295.602,590.337L285.172,603.277L290.888,602.541L281.461,613.133L288.39,612.127L278.649,624.671L285.223,624.261L275.329,633.602L281.921,633.741L271.802,644.621L280.701,644.243L270.519,656.974L277.828,656.622L263.832,670.733L279.035,665.42L267.611,678.745L277.265,676.564L268.736,686.011L277.156,685.298L269.544,694.64L278.35,690.286L281.516,697.782L288.291,688.802L292.701,697.976L296.963,686.918L303.543,699.792L309.45,689.588L317.94,699.759L319.595,690.017L331.099,700.524L329.822,688.873L337.046,698.572L335.999,686.856L345,692L337.657,678.744L343.773,679.385L332.736,667.673L339.448,668.163L327.651,655.291L334.732,655.969L324.837,643.201L332.803,644.381L325.413,633.994L333.22,636.524L325.331,626.558L330.889,627.175L323.243,617.536L328.812,619.105L320.781,609.416L326.84,610.929L319.327,602.121L325.571,603.271L317.625,594.902L323.618,595.763L316.297,588.323L321.196,589.223L315.183,583.493L319.866,583.267L311.516,573.568L319.05,573.73L303.57,556.938Z" style="fill:rgb(58,105,42);"/>
                </g>
                <g transform="matrix(1.0303,0,0,4.12122,1190.77,-1420.24)">
                    <path d="M303,558L292.783,573.179L298.476,571.663L290.801,582.922L297.128,581.09L288.966,591.778L295.145,591.327L286.804,601.454L294.687,600.927L284.645,611.67L292.305,610.899L283.134,622.238L289.004,621.628L280.569,632.287L286.807,631.509L276.889,643.468L284.154,640.422L275.091,652.197L280.895,651.374L272.042,664.227L277.863,662.475L268.883,674.914L275.235,673.398L265.758,686.703L272.375,685.283L268.127,694.313L279.228,689.964L283.699,697.651L289.022,689.111L294.082,698.034L297.475,690.842L302.957,697.015L308.092,687.539L313.381,697.266L318.787,687.179L326.53,697.268L327.904,686.877L333.942,697.6L335.602,686.254L345,692L337.175,679.678L343.465,681.664L334.568,670.306L341.805,672.021L331.659,659.42L338.888,661.977L321.673,629.264L327.914,629.357L320.052,616.568L326.195,618.041L318.193,606.998L324.469,609.266L314.452,595.722L320.769,595.745L311.685,584.934L318.251,586.158L309.278,574.159L315.614,575.58L303,558Z" style="fill:rgb(58,105,42);"/>
                </g>
                <g transform="matrix(1.0303,0,0,4.12122,1935.89,-1587.76)">
                    <path d="M112,645L127.69,626.416L117.938,629.778L130.981,613.473L124.991,615.236L135,598L146.632,622.875L141.728,621.145L153.263,638.443L146.523,636.792L158,652L149,647L159.287,661.615L150.105,660.984L161,672L151,669L164.712,688.244L155.905,689.337L166,700L158,700L173,723L164,718L174,733L164,730L172,741L150,729L156,741L141,729L136,743L128,728L117,740L118,725L99,737L110,722L91,726L107,709L93,712L110,696L97,698L113,684L98,688L115,672L102,675L118,656L108,658L123,639L112,645Z" style="fill:rgb(58,105,42);"/>
                </g>
                <g transform="matrix(1.0303,0,0,4.12122,1684.48,-1377.58)">
                    <path d="M303,558L292.127,579.479L300.832,575.499L288.858,588.49L296.544,588.591L285.581,600.564L295.657,597.084L285.976,608.965L294.527,606.079L279.969,619.12L289.065,616.756L279.702,627.285L289.88,626.311L275.329,636.45L286.693,634.475L276.008,645.437L287.246,643.493L273.661,655.065L282.602,652.919L269.884,663.632L280.583,662.241L267.975,675.925L281.999,671.17L265.956,684.389L276.03,683.358L265.656,694.884L277.437,689.141L276.068,699.124L290.394,686.527L289.568,700.711L301.429,686.303L307.088,698.407L312.178,685.529L329.698,697.631L323.963,686.716L340.822,696.33L335.072,686.906L349.284,693.437L342.024,682.506L349.4,684.23L337.832,669.13L348.465,674.683L335.284,657.526L345.27,661.756L332.089,647.691L340.906,650.106L326.559,631.546L336.168,635.358L322.715,617.296L332.593,620.094L319.2,605.435L328.217,607.543L317.059,597.316L326.679,598.895L312.913,586.143L321.991,588.136L310.99,573.217L317.797,575.061L303,558Z" style="fill:rgb(58,105,42);"/>
                </g>
                <g transform="matrix(1.0303,0,0,4.12122,1785.89,-1411.53)">
                    <path d="M303,558L292.127,579.479L300.832,575.499L288.858,588.49L296.544,588.591L285.581,600.564L295.657,597.084L285.976,608.965L294.527,606.079L279.969,619.12L289.065,616.756L279.702,627.285L289.88,626.311L275.329,636.45L286.693,634.475L276.008,645.437L287.246,643.493L273.661,655.065L282.602,652.919L269.884,663.632L280.583,662.241L267.975,675.925L281.999,671.17L265.956,684.389L276.03,683.358L265.656,694.884L277.437,689.141L276.068,699.124L290.394,686.527L289.568,700.711L301.429,686.303L307.088,698.407L312.178,685.529L329.698,697.631L323.963,686.716L340.822,696.33L335.072,686.906L349.284,693.437L342.024,682.506L349.4,684.23L337.832,669.13L348.465,674.683L335.284,657.526L345.27,661.756L332.089,647.691L340.906,650.106L326.559,631.546L336.168,635.358L322.715,617.296L332.593,620.094L319.2,605.435L328.217,607.543L317.059,597.316L326.679,598.895L312.913,586.143L321.991,588.136L310.99,573.217L317.797,575.061L303,558Z" style="fill:rgb(58,105,42);"/>
                </g>
                <g transform="matrix(1.0303,0,0,4.12122,1265.68,-1336.82)">
                    <path d="M303,558L293.578,577.064L302.308,572.131L289.312,586.469L296.491,587.124L287.597,598.406L295.64,595.093L285.12,610.727L294.625,606.626L284.065,623.92L293.205,619.189L281.57,635.575L289.19,633.063L277.255,647.492L286.209,643.049L274.736,659.516L283.518,655.228L276.977,665.983L285.643,662.89L274.795,673.414L283.48,671.269L271.132,683.753L279.662,681.555L268.773,694.29L283.108,686.377L278.622,703.87L289.076,688.002L291.001,703.943L297.384,689.158L297.233,704.976L306.034,690.654L309.865,704.265L316.3,689.702L323.145,702.826L326.283,689.666L333.504,703.2L338.072,691.906L347.924,703.415L345,692L354.153,695.248L339.158,678.036L348.434,680.543L336.813,666.428L344.967,666.985L332.431,656.155L341.749,657.925L330.905,644.203L339.715,647.426L327.375,630.267L334.977,630.419L322.368,617.823L333.99,620.819L320.02,608.104L326.88,608.877L316.138,596.366L323.626,595.982L313.194,584.794L320.231,585.445L308.84,571.551L319.447,575.484L303,558Z" style="fill:rgb(58,105,42);"/>
                </g>
                <g transform="matrix(1.0303,0,0,4.12122,1610.98,-1444.76)">
                    <path d="M301.762,556.496L291.401,572.572L297.524,571.905L286.171,582.843L295.994,581.692L285.641,594.035L293.594,589.932L281.822,605.848L291.721,603.935L279.274,618.462L289.521,618.566L275.568,633.001L284.584,632.301L273.006,645.79L283.082,642.149L270.12,658.634L280.519,654.624L268.14,669.067L279.84,665.696L268.525,677.59L279.725,675.885L269.486,688.96L283.741,683.051L281.208,693.951L291.974,684.503L294.585,695.82L302.699,683.087L306.299,694.948L309.883,683.666L318.498,693.79L319.651,681.825L327.793,693.381L329.639,682.668L333.426,691.51L335.568,682.592L345,692L339.468,678.521L349.85,683.25L337.832,669.13L347.35,672.873L334.879,657.784L343.704,660.604L331.823,646.867L340.915,649.544L330.321,638.5L338.34,641.475L324.409,624.314L333.69,625.143L319.369,611.092L329.295,613.133L316.855,601.54L324.305,601.749L312.143,592.533L322.358,593.681L307.783,582.356L321.518,584.944L305.399,570.583L315.524,576.497L301.762,556.496Z" style="fill:rgb(58,105,42);"/>
                </g>
                <g transform="matrix(1.0303,0,0,4.12122,778.358,-1319.79)">
                    <path d="M301.762,556.496L291.401,572.572L297.524,571.905L286.171,582.843L295.994,581.692L285.641,594.035L293.594,589.932L281.822,605.848L291.721,603.935L279.274,618.462L289.521,618.566L275.568,633.001L284.584,632.301L273.006,645.79L283.082,642.149L270.12,658.634L280.519,654.624L268.14,669.067L279.84,665.696L268.525,677.59L279.725,675.885L269.486,688.96L283.741,683.051L281.208,693.951L291.974,684.503L294.585,695.82L302.699,683.087L306.299,694.948L309.883,683.666L318.498,693.79L319.651,681.825L327.793,693.381L329.639,682.668L333.426,691.51L335.568,682.592L345,692L339.468,678.521L349.85,683.25L337.832,669.13L347.35,672.873L334.879,657.784L343.704,660.604L331.823,646.867L340.915,649.544L330.321,638.5L338.34,641.475L324.409,624.314L333.69,625.143L319.369,611.092L329.295,613.133L316.855,601.54L324.305,601.749L312.143,592.533L322.358,593.681L307.783,582.356L321.518,584.944L305.399,570.583L315.524,576.497L301.762,556.496Z" style="fill:rgb(58,105,42);"/>
                </g>
                <g transform="matrix(1.0303,0,0,4.12122,1647.26,-1409.82)">
                    <path d="M304.003,560.14L292.615,581.047L300.405,575.907L286.657,593.845L298.787,589.994L283.271,604.824L295.12,604.281L284.854,615.814L295.82,615.951L286.17,627.948L295.196,625.13L281.75,646.319L292.981,643.816L277.121,660.817L287.743,661.125L273.92,678.866L287.404,673.574L271,691L286.865,683.154L285.89,696.538L298.162,682.53L301.021,696.423L307.46,684.08L314.349,696.003L317.81,683.53L326.819,693.788L326.484,681.399L338.051,696.67L334.189,683.163L345,692L333.081,672.197L340.133,676.473L325.942,658.511L335.323,661.126L321.543,649.564L332.995,651.592L320.861,636.299L329.035,638.61L315.826,622.891L325.509,626.389L316.347,611.921L322.793,613.466L313.288,601.564L321.028,603.193L310.068,588.746L318.388,591.62L307.105,576.791L315.236,578.237L304.003,560.14Z" style="fill:rgb(58,105,42);"/>
                </g>
                <g transform="matrix(1.0303,0,0,4.12122,926.334,-1364.66)">
                    <path d="M303,558L294.027,574.572L299.604,572.113L291.169,585.266L298.046,583.638L290.021,595.72L298.032,593.795L286.693,606.944L295.695,604.286L284.15,617.284L294.467,617.753L283.068,630.188L292.484,630.245L277.556,645.669L289.593,643.252L274.656,658.311L286.325,656.949L269.119,671.612L282.753,670.318L264.672,681.902L277.057,681.708L268.484,696.265L281.019,691.135L286.199,702.278L294.715,686.394L301.936,701.497L307.514,688.601L315.548,699.801L319.065,684.979L327.978,698.951L328.684,684.268L345.051,695.246L331.783,674.864L343.138,681.109L331.805,665.987L340.906,669.553L327.985,653.503L338.223,657.147L325.074,640.513L336.365,645.06L319.86,624.79L331.307,628.797L317.586,615.859L327.019,618.268L315.645,606.082L323.873,609.309L313.78,597.282L321.783,598.941L310.781,585.078L318.661,586.962L308.22,574.653L315.525,577.801L303,558Z" style="fill:rgb(58,105,42);"/>
                </g>
                <g transform="matrix(1.0303,0,0,4.12122,897.156,-1288.69)">
                    <path d="M303,558L292.601,576.041L299.604,572.113L290.465,584.881L295.892,583.967L288.475,595.601L294.484,594.421L286.137,606.976L292.971,605.184L283.509,618.859L292.61,615.586L281.534,629.517L290.839,627.499L277.081,643.36L287.699,639.189L274.345,653.111L286.602,650.621L272.679,664.628L283.453,662.681L270.916,676.094L282.272,675.553L266.472,689.564L286.218,681.91L289.663,694.648L297.352,679.637L301.63,694.808L309.671,682.374L314.799,695.908L317.786,679.821L325.74,695.44L326.822,679.384L333.739,695.062L334.521,683.445L345,692L332.659,671.858L340.133,676.473L327.413,660.834L338.563,665.214L324.589,648.828L334.645,652.122L322.099,636.035L330.561,637.376L319.646,626.37L328.188,627.153L317.812,616.049L324.826,616.431L313.526,604.581L323.226,607.187L310.871,594.106L318.383,595.749L308.991,584.426L316.364,584.864L306.999,571.929L315.245,576.292L303,558Z" style="fill:rgb(58,105,42);"/>
                </g>
                <g transform="matrix(1.0303,0,0,4.12122,1566.74,-1376.01)">
                    <path d="M303,558L293.131,573.496L298.094,572.254L290.493,585.227L296.446,583.813L287.189,595.045L294.945,594.176L285.044,605.234L293.893,603.818L281.938,617.08L291.46,615.735L279.652,628.611L289.717,627.401L277.114,641.994L287.667,640.06L275.148,652.793L286.299,650.47L273.573,663.951L283.919,661.329L271.465,673.759L282.596,671.589L271.601,681.136L281.878,680.733L271,691L286.975,684.881L288.067,691.231L295.945,683.222L300.547,695.243L304.3,683.497L309.836,695.385L314.079,683.66L318.501,695.526L322.227,686.322L326.667,692.733L329.357,682.4L335.923,692.444L336.184,683.567L347.455,690.388L339.862,680.29L345.657,682.445L338.319,673.943L344.329,675.05L335.554,663.53L342.048,665.14L332.106,653.36L339.019,655.998L329.393,645.998L336.752,647.493L327.223,635.282L333.079,635.452L323.625,625.683L330.093,627L319.859,616.025L326.681,617.683L317.614,607.584L323.748,609.295L315.45,597.476L321.652,599.926L313.854,588.914L319.504,590.546L310.748,581.066L317.073,582.63L308.691,571.972L315.549,572.629L303,558Z" style="fill:rgb(58,105,42);"/>
                </g>
                <g transform="matrix(1.0303,0,0,4.12122,962.791,-1383.48)">
                    <path d="M303,558L291.788,575.632L295.891,573.066L289.864,582.846L295.7,579.549L288.552,590.362L293.326,587.457L287.358,598.534L293.708,594.309L286.081,607.804L292.314,605.108L284.51,616.435L290.852,614.262L282.496,626.016L288.805,624.027L279.569,637.053L286.74,635.32L278.605,647.531L286.129,645.159L277.182,658.819L283.507,656.286L274.386,670.299L281.465,668.425L272.585,681.587L280.482,679.294L274.267,690.385L289.056,679.947L288.067,691.231L298.173,680.364L301.088,691.407L310.22,681.301L317.698,691.631L321.259,681.736L329.4,691.789L328.638,682.612L340.812,689.496L335.256,679.905L341.237,681.832L329.43,669.362L337.987,673.319L329.844,663.095L336.387,665.297L327.551,654.908L333.871,655.048L325.596,647.235L330.913,646.445L323.952,636.829L330.462,638.633L321.665,626.705L328.072,627.671L320.243,617.192L327.373,618.89L318.259,608.268L323.013,609.447L315.43,599.798L321.408,599.922L313.866,590.267L319.052,591.29L311.993,580.765L316.957,583.026L308.811,570.612L314.058,573.353L303,558Z" style="fill:rgb(58,105,42);"/>
                </g>
                <g transform="matrix(1.0303,0,0,4.12122,861.988,-1322.15)">
                    <path d="M303,558L295.455,571.234L300.644,570.296L291.237,582.133L298.416,579.803L291.402,592.892L296.96,589.367L289.98,600.59L295.571,597.233L289.497,607.658L294.803,606.018L288.299,618.816L293.678,615.655L285.318,626.45L291.615,624.253L283.086,636.622L289.645,634.729L280.877,645.074L287.014,643.507L278.601,654.673L285.636,651.755L275.773,664.226L282.799,662.37L273.538,673.327L281.049,672.14L270.489,682.477L279.846,680.087L271,691L283.517,685.577L283.195,697.15L292.418,684.796L294.096,696.915L301.329,685.139L305.203,697.522L310.424,684.813L314.531,695.917L317.574,686.995L323.943,694.953L326.127,683.812L331.588,692.144L332.974,684.546L343.003,689.61L335.285,678.166L342.658,682.25L334.607,670.422L341.221,672.564L331.19,662.252L339.72,664.693L328.706,652.424L338.409,656.142L327.088,643.517L334.638,645.737L325.363,638.164L330.425,636.303L320.941,629.44L326.652,629.098L318.031,619.276L324.315,621.644L315.338,611.924L321.626,612.275L314.461,603.004L320.186,603.284L311.443,594.158L317.663,595.091L310.297,584.81L314.871,584.702L307.913,576.185L313.645,575.753L304.883,566.376L310.795,567.962L303,558Z" style="fill:rgb(58,105,42);"/>
                </g>
                <g transform="matrix(1.0303,0,0,4.12122,1342.19,-1372.61)">
                    <path d="M301.467,556.659L294.083,570.991L298.838,568.089L293.745,578.651L297.883,577.799L289.316,588.184L295.29,586.998L287.054,596.872L292.962,596.084L284.711,606.041L290.157,605.698L281.39,617.196L287.865,615.621L278.698,627.948L285.638,626.759L276.002,638.655L282.597,637.02L274.413,649.463L280.139,647.807L271.059,659.423L277.441,657.584L269.129,668.711L275.709,667.438L264.903,677.044L272.823,675.898L263,684.968L272.452,683.404L268.509,692.437L279.87,685.004L280.392,696.164L288.451,684.908L294.195,696.573L298.405,685.85L302.445,696.979L306.92,685.398L312.333,697.284L314.359,687.59L324.729,697.811L322.694,686.424L334.048,697.559L332.369,687.257L345,692L333.019,680.303L342.049,680.88L331.892,669.896L340.688,671.857L329.559,659.301L337.614,661.291L327.958,649.019L334.958,651.277L325.881,641.03L332.328,641.873L323.808,629.501L329.039,630.383L320.193,620.169L325.854,622.462L316.729,609.575L323.702,612.831L313.78,599.986L319.444,601.712L310.175,590.838L316.867,593.349L308.215,581.525L313.22,582.49L305.537,571.3L310.718,573.032L301.467,556.659Z" style="fill:rgb(58,105,42);"/>
                </g>
                <g transform="matrix(1.0303,0,0,4.12122,826.045,-1312.43)">
                    <path d="M303.57,556.938L291.032,573.307L300.332,569.566L288.651,582.79L295.98,581.627L288.97,592.208L295.602,590.337L285.172,603.277L290.888,602.541L281.461,613.133L288.39,612.127L278.649,624.671L285.223,624.261L275.329,633.602L281.921,633.741L271.802,644.621L280.701,644.243L270.519,656.974L277.828,656.622L263.832,670.733L279.035,665.42L267.611,678.745L277.265,676.564L268.736,686.011L277.156,685.298L269.544,694.64L278.35,690.286L281.516,697.782L288.291,688.802L292.701,697.976L296.963,686.918L303.543,699.792L309.45,689.588L317.94,699.759L319.595,690.017L331.099,700.524L329.822,688.873L337.046,698.572L335.999,686.856L345,692L337.657,678.744L343.773,679.385L332.736,667.673L339.448,668.163L327.651,655.291L334.732,655.969L324.837,643.201L332.803,644.381L325.413,633.994L333.22,636.524L325.331,626.558L330.889,627.175L323.243,617.536L328.812,619.105L320.781,609.416L326.84,610.929L319.327,602.121L325.571,603.271L317.625,594.902L323.618,595.763L316.297,588.323L321.196,589.223L315.183,583.493L319.866,583.267L311.516,573.568L319.05,573.73L303.57,556.938Z" style="fill:rgb(58,105,42);"/>
                </g>
                <g transform="matrix(1.0303,0,0,4.12122,1723.37,-1405.09)">
                    <path d="M303,558L292.783,573.179L298.476,571.663L290.801,582.922L297.128,581.09L288.966,591.778L295.145,591.327L286.804,601.454L294.687,600.927L284.645,611.67L292.305,610.899L283.134,622.238L289.004,621.628L280.569,632.287L286.807,631.509L276.889,643.468L284.154,640.422L275.091,652.197L280.895,651.374L272.042,664.227L277.863,662.475L268.883,674.914L275.235,673.398L265.758,686.703L272.375,685.283L268.127,694.313L279.228,689.964L283.699,697.651L289.022,689.111L294.082,698.034L297.475,690.842L302.957,697.015L308.092,687.539L313.381,697.266L318.787,687.179L326.53,697.268L327.904,686.877L333.942,697.6L335.602,686.254L345,692L337.175,679.678L343.465,681.664L334.568,670.306L341.805,672.021L331.659,659.42L338.888,661.977L321.673,629.264L327.914,629.357L320.052,616.568L326.195,618.041L318.193,606.998L324.469,609.266L314.452,595.722L320.769,595.745L311.685,584.934L318.251,586.158L309.278,574.159L315.614,575.58L303,558Z" style="fill:rgb(58,105,42);"/>
                </g>
            </g>
        </g>
    </g>
</svg>
