<?xml version="1.0" encoding="UTF-8" standalone="no"?>
<!DOCTYPE svg PUBLIC "-//W3C//DTD SVG 1.1//EN" "http://www.w3.org/Graphics/SVG/1.1/DTD/svg11.dtd">
<svg width="100%" height="100%" viewBox="0 0 3750 250" version="1.1" xmlns="http://www.w3.org/2000/svg" xmlns:xlink="http://www.w3.org/1999/xlink" xml:space="preserve" xmlns:serif="http://www.serif.com/" style="fill-rule:evenodd;clip-rule:evenodd;stroke-linejoin:round;stroke-miterlimit:2;">
    <g transform="matrix(4.16667,0,0,4.16667,0,0)">
        <g id="Artboard1" transform="matrix(0.878906,0,0,0.078125,0,0)">
            <rect x="0" y="0" width="1024" height="768" style="fill:none;"/>
            <clipPath id="_clip1">
                <rect x="0" y="0" width="1024" height="768"/>
            </clipPath>
            <g clip-path="url(#_clip1)">
                <g transform="matrix(1.13778,0,0,12.8,-82.1134,-2452.44)">
                    <path d="M186.725,251.36L72.17,251.36L72.17,236.36L172.17,236.36L172.17,191.834L191.632,191.834C197.827,191.834 202.575,192.64 205.711,194.004C212.146,196.899 216.647,203.901 216.647,212.343C216.647,221.756 211.017,229.48 201.851,231.085L210.064,241.389L244.079,191.834L259.117,191.834L259.117,224.574L259.283,224.574L281.726,191.834L296.764,191.834L296.764,225.17L296.82,224.574L296.986,224.574L319.422,191.834L334.467,191.834L334.467,225.17L334.523,224.574L334.682,224.574L357.125,191.834L372.17,191.834L372.17,236.36L972.17,236.36L972.17,251.36L356.967,251.36L356.967,215.884L356.803,215.884L334.467,247.774L331.953,251.36L319.263,251.36L319.263,215.884L319.105,215.884L296.764,247.774L294.25,251.36L281.56,251.36L281.56,215.884L281.402,215.884L256.547,251.36L243.914,251.36L243.914,215.884L243.755,215.884L220.671,251.36L200.646,251.36L186.891,232.133L186.725,232.133L186.725,251.36ZM192.356,221.756C198.393,221.756 202.092,218.944 202.092,213.231C202.092,208.083 198.227,205.189 192.521,205.189L186.725,205.189L186.725,221.756L192.356,221.756Z" style="fill:rgb(253,181,20);"/>
                </g>
            </g>
        </g>
    </g>
</svg>
