<?xml version="1.0" encoding="UTF-8" standalone="no"?>
<!DOCTYPE svg PUBLIC "-//W3C//DTD SVG 1.1//EN" "http://www.w3.org/Graphics/SVG/1.1/DTD/svg11.dtd">
<svg width="100%" height="100%" viewBox="0 0 100 100" version="1.1" xmlns="http://www.w3.org/2000/svg" xmlns:xlink="http://www.w3.org/1999/xlink" xml:space="preserve" xmlns:serif="http://www.serif.com/" style="fill-rule:evenodd;clip-rule:evenodd;stroke-linejoin:round;stroke-miterlimit:2;">
    <g transform="matrix(1,0,0,1,0,-144.787)">
        <g id="Artboard1" transform="matrix(0.078125,0,0,0.125,0,144.787)">
            <rect x="0" y="0" width="1280" height="800" style="fill:none;"/>
            <g transform="matrix(0.7,0,0,0.7,192,120)">
                <g transform="matrix(18.2857,0,0,11.4286,-274.286,-1826.14)">
                    <path d="M34.006,194.787C34.006,190.373 35.797,186.374 38.692,183.479C41.587,180.584 45.586,178.793 50,178.793C54.414,178.793 58.413,180.584 61.308,183.479C64.203,186.374 65.994,190.373 65.994,194.787C65.994,199.201 64.203,203.2 61.308,206.095C58.413,208.99 54.414,210.781 50,210.781C45.586,210.781 41.587,208.99 38.692,206.095C35.797,203.2 34.006,199.201 34.006,194.787Z" style="fill:rgb(253,181,20);"/>
                </g>
                <g transform="matrix(1.9988,0,0,2.42042,458.769,-26.984)">
                    <path d="M136.411,57.292C136.411,70.322 115.915,80.9 90.67,80.9C65.424,80.9 44.928,70.322 44.928,57.292L44.928,11.148C44.928,-1.882 65.424,-12.46 90.67,-12.46C115.915,-12.46 136.411,-1.882 136.411,11.148L136.411,57.292Z" style="fill:rgb(253,181,20);"/>
                </g>
                <g transform="matrix(1.41337,0.883353,-2.7384,1.7115,994.928,17.9834)">
                    <path d="M136.411,57.292C136.411,70.322 115.915,80.9 90.67,80.9C65.424,80.9 44.928,70.322 44.928,57.292L44.928,11.148C44.928,-1.882 65.424,-12.46 90.67,-12.46C115.915,-12.46 136.411,-1.882 136.411,11.148L136.411,57.292Z" style="fill:rgb(253,181,20);"/>
                </g>
                <g transform="matrix(3.83989e-16,1.24925,-3.87268,1.59995e-16,1323.17,286.731)">
                    <path d="M136.411,57.292C136.411,70.322 115.915,80.9 90.67,80.9C65.424,80.9 44.928,70.322 44.928,57.292L44.928,11.148C44.928,-1.882 65.424,-12.46 90.67,-12.46C115.915,-12.46 136.411,-1.882 136.411,11.148L136.411,57.292Z" style="fill:rgb(253,181,20);"/>
                </g>
                <g transform="matrix(-1.41337,0.883353,-2.7384,-1.7115,1251.23,621.83)">
                    <path d="M136.411,57.292C136.411,70.322 115.915,80.9 90.67,80.9C65.424,80.9 44.928,70.322 44.928,57.292L44.928,11.148C44.928,-1.882 65.424,-12.46 90.67,-12.46C115.915,-12.46 136.411,-1.882 136.411,11.148L136.411,57.292Z" style="fill:rgb(253,181,20);"/>
                </g>
                <g transform="matrix(-1.9988,3.99988e-16,-5.11985e-16,-2.42042,821.231,826.984)">
                    <path d="M136.411,57.292C136.411,70.322 115.915,80.9 90.67,80.9C65.424,80.9 44.928,70.322 44.928,57.292L44.928,11.148C44.928,-1.882 65.424,-12.46 90.67,-12.46C115.915,-12.46 136.411,-1.882 136.411,11.148L136.411,57.292Z" style="fill:rgb(253,181,20);"/>
                </g>
                <g transform="matrix(-1.41337,-0.883353,2.7384,-1.7115,285.072,782.017)">
                    <path d="M136.411,57.292C136.411,70.322 115.915,80.9 90.67,80.9C65.424,80.9 44.928,70.322 44.928,57.292L44.928,11.148C44.928,-1.882 65.424,-12.46 90.67,-12.46C115.915,-12.46 136.411,-1.882 136.411,11.148L136.411,57.292Z" style="fill:rgb(253,181,20);"/>
                </g>
                <g transform="matrix(-1.02397e-15,-1.24925,3.87268,-9.59972e-16,-43.1743,513.269)">
                    <path d="M136.411,57.292C136.411,70.322 115.915,80.9 90.67,80.9C65.424,80.9 44.928,70.322 44.928,57.292L44.928,11.148C44.928,-1.882 65.424,-12.46 90.67,-12.46C115.915,-12.46 136.411,-1.882 136.411,11.148L136.411,57.292Z" style="fill:rgb(253,181,20);"/>
                </g>
                <g transform="matrix(1.41337,-0.883353,2.7384,1.7115,28.7735,178.17)">
                    <path d="M136.411,57.292C136.411,70.322 115.915,80.9 90.67,80.9C65.424,80.9 44.928,70.322 44.928,57.292L44.928,11.148C44.928,-1.882 65.424,-12.46 90.67,-12.46C115.915,-12.46 136.411,-1.882 136.411,11.148L136.411,57.292Z" style="fill:rgb(253,181,20);"/>
                </g>
            </g>
        </g>
    </g>
</svg>
