<?xml version="1.0" encoding="UTF-8" standalone="no"?>
<!DOCTYPE svg PUBLIC "-//W3C//DTD SVG 1.1//EN" "http://www.w3.org/Graphics/SVG/1.1/DTD/svg11.dtd">
<svg width="100%" height="100%" viewBox="0 0 100 100" version="1.1" xmlns="http://www.w3.org/2000/svg" xmlns:xlink="http://www.w3.org/1999/xlink" xml:space="preserve" xmlns:serif="http://www.serif.com/" style="fill-rule:evenodd;clip-rule:evenodd;stroke-linejoin:round;stroke-miterlimit:2;">
    <g transform="matrix(1,0,0,1,-150,0)">
        <rect id="Artboard2" x="150" y="0" width="100" height="100" style="fill:none;"/>
        <g id="Artboard21" serif:id="Artboard2">
            <g transform="matrix(0.649556,0,0,0.649556,-134.97,-84.9053)">
                <path d="M534.661,150.435C557.281,158.804 573.422,180.579 573.422,206.093C573.422,238.837 546.839,265.42 514.095,265.42C488.581,265.42 466.807,249.279 458.437,226.659C457.394,223.84 458.088,220.671 460.213,218.545C462.339,216.419 465.508,215.726 468.328,216.769C473.071,218.524 478.2,219.481 483.551,219.481C507.798,219.481 527.483,199.796 527.483,175.549C527.483,170.198 526.526,165.069 524.771,160.325C523.728,157.506 524.421,154.337 526.547,152.211C528.673,150.086 531.842,149.392 534.661,150.435ZM542.818,172.862C542.858,173.752 542.878,174.649 542.878,175.549C542.878,208.293 516.295,234.876 483.551,234.876C482.651,234.876 481.755,234.856 480.863,234.815C488.921,244.129 500.825,250.025 514.095,250.025C538.342,250.025 558.027,230.34 558.027,206.093C558.027,192.823 552.131,180.92 542.818,172.862Z" style="fill:rgb(151,43,244);"/>
            </g>
        </g>
    </g>
</svg>
