<?xml version="1.0" encoding="UTF-8" standalone="no"?>
<!DOCTYPE svg PUBLIC "-//W3C//DTD SVG 1.1//EN" "http://www.w3.org/Graphics/SVG/1.1/DTD/svg11.dtd">
<svg width="100%" height="100%" viewBox="0 0 100 100" version="1.1" xmlns="http://www.w3.org/2000/svg" xmlns:xlink="http://www.w3.org/1999/xlink" xml:space="preserve" xmlns:serif="http://www.serif.com/" style="fill-rule:evenodd;clip-rule:evenodd;stroke-linejoin:round;stroke-miterlimit:2;">
    <g id="Artboard1" transform="matrix(0.078125,0,0,0.125,0,0)">
        <rect x="0" y="0" width="1280" height="800" style="fill:none;"/>
        <g transform="matrix(0.7,0,0,0.7,192,120)">
            <g transform="matrix(8.90039,0,0,5.56274,23.1471,74.7757)">
                <path d="M36.447,58.465C36.447,49.397 40.126,41.181 46.074,35.233C52.022,29.285 60.238,25.605 69.306,25.605C78.374,25.605 86.59,29.285 92.538,35.233C98.487,41.181 102.166,49.397 102.166,58.465C102.166,67.533 98.487,75.749 92.538,81.697C86.59,87.645 78.374,91.324 69.306,91.324C60.238,91.324 52.022,87.645 46.074,81.697C40.126,75.749 36.447,67.533 36.447,58.465ZM56.992,58.465C56.992,61.863 58.373,64.941 60.602,67.169C62.83,69.398 65.908,70.78 69.306,70.78C72.704,70.78 75.782,69.398 78.011,67.169C80.24,64.941 81.621,61.863 81.621,58.465C81.621,55.067 80.24,51.989 78.011,49.76C75.782,47.531 72.704,46.15 69.306,46.15C65.908,46.15 62.83,47.531 60.602,49.76C58.373,51.989 56.992,55.067 56.992,58.465Z" style="fill:rgb(253,181,20);"/>
            </g>
            <g transform="matrix(1.9988,0,0,2.42042,458.769,-26.984)">
                <path d="M136.411,57.292C136.411,70.322 115.915,80.9 90.67,80.9C65.424,80.9 44.928,70.322 44.928,57.292L44.928,11.148C44.928,-1.882 65.424,-12.46 90.67,-12.46C115.915,-12.46 136.411,-1.882 136.411,11.148L136.411,57.292Z" style="fill:rgb(253,181,20);"/>
            </g>
            <g transform="matrix(1.41337,0.883353,-2.7384,1.7115,994.928,17.9834)">
                <path d="M136.411,57.292C136.411,70.322 115.915,80.9 90.67,80.9C65.424,80.9 44.928,70.322 44.928,57.292L44.928,11.148C44.928,-1.882 65.424,-12.46 90.67,-12.46C115.915,-12.46 136.411,-1.882 136.411,11.148L136.411,57.292Z" style="fill:rgb(253,181,20);"/>
            </g>
            <g transform="matrix(3.83989e-16,1.24925,-3.87268,1.59995e-16,1323.17,286.731)">
                <path d="M136.411,57.292C136.411,70.322 115.915,80.9 90.67,80.9C65.424,80.9 44.928,70.322 44.928,57.292L44.928,11.148C44.928,-1.882 65.424,-12.46 90.67,-12.46C115.915,-12.46 136.411,-1.882 136.411,11.148L136.411,57.292Z" style="fill:rgb(253,181,20);"/>
            </g>
            <g transform="matrix(-1.41337,0.883353,-2.7384,-1.7115,1251.23,621.83)">
                <path d="M136.411,57.292C136.411,70.322 115.915,80.9 90.67,80.9C65.424,80.9 44.928,70.322 44.928,57.292L44.928,11.148C44.928,-1.882 65.424,-12.46 90.67,-12.46C115.915,-12.46 136.411,-1.882 136.411,11.148L136.411,57.292Z" style="fill:rgb(253,181,20);"/>
            </g>
            <g transform="matrix(-1.9988,3.99988e-16,-5.11985e-16,-2.42042,821.231,826.984)">
                <path d="M136.411,57.292C136.411,70.322 115.915,80.9 90.67,80.9C65.424,80.9 44.928,70.322 44.928,57.292L44.928,11.148C44.928,-1.882 65.424,-12.46 90.67,-12.46C115.915,-12.46 136.411,-1.882 136.411,11.148L136.411,57.292Z" style="fill:rgb(253,181,20);"/>
            </g>
            <g transform="matrix(-1.41337,-0.883353,2.7384,-1.7115,285.072,782.017)">
                <path d="M136.411,57.292C136.411,70.322 115.915,80.9 90.67,80.9C65.424,80.9 44.928,70.322 44.928,57.292L44.928,11.148C44.928,-1.882 65.424,-12.46 90.67,-12.46C115.915,-12.46 136.411,-1.882 136.411,11.148L136.411,57.292Z" style="fill:rgb(253,181,20);"/>
            </g>
            <g transform="matrix(-1.02397e-15,-1.24925,3.87268,-9.59972e-16,-43.1743,513.269)">
                <path d="M136.411,57.292C136.411,70.322 115.915,80.9 90.67,80.9C65.424,80.9 44.928,70.322 44.928,57.292L44.928,11.148C44.928,-1.882 65.424,-12.46 90.67,-12.46C115.915,-12.46 136.411,-1.882 136.411,11.148L136.411,57.292Z" style="fill:rgb(253,181,20);"/>
            </g>
            <g transform="matrix(1.41337,-0.883353,2.7384,1.7115,28.7735,178.17)">
                <path d="M136.411,57.292C136.411,70.322 115.915,80.9 90.67,80.9C65.424,80.9 44.928,70.322 44.928,57.292L44.928,11.148C44.928,-1.882 65.424,-12.46 90.67,-12.46C115.915,-12.46 136.411,-1.882 136.411,11.148L136.411,57.292Z" style="fill:rgb(253,181,20);"/>
            </g>
        </g>
    </g>
</svg>
